<svg width="229" height="290" viewBox="0 0 229 290" fill="none" xmlns="http://www.w3.org/2000/svg">
<path d="M43.912 277.392C46.856 277.392 49.224 276.731 51.016 275.408C52.808 274.085 53.704 272.123 53.704 269.52C53.704 268.667 53.6827 267.877 53.64 267.152C53.5547 266.427 53.4693 265.829 53.384 265.36H36.04C35.656 265.957 35.336 266.747 35.08 267.728C34.824 268.667 34.696 269.627 34.696 270.608C34.696 275.131 37.768 277.392 43.912 277.392ZM59.912 255.824C60.168 256.677 60.424 257.659 60.68 258.768C60.8933 259.877 61.0853 261.051 61.256 262.288C61.4267 263.483 61.5547 264.72 61.64 266C61.768 267.237 61.832 268.432 61.832 269.584C61.832 272.357 61.4267 274.832 60.616 277.008C59.8053 279.184 58.6533 281.019 57.16 282.512C55.624 284.005 53.7893 285.157 51.656 285.968C49.48 286.736 47.048 287.12 44.36 287.12C41.6293 287.12 39.176 286.779 37 286.096C34.7813 285.413 32.904 284.432 31.368 283.152C29.832 281.872 28.6587 280.315 27.848 278.48C27.0373 276.603 26.632 274.469 26.632 272.08C26.632 270.757 26.76 269.584 27.016 268.56C27.272 267.493 27.6347 266.427 28.104 265.36H12.872L11.336 255.824H59.912ZM44.424 248.495C41.4373 248.495 38.8347 248.047 36.616 247.151C34.3547 246.212 32.4773 244.996 30.984 243.503C29.4907 242.01 28.36 240.303 27.592 238.383C26.824 236.42 26.44 234.415 26.44 232.367C26.44 227.588 27.912 223.812 30.856 221.039C33.7573 218.266 38.0453 216.879 43.72 216.879C44.2747 216.879 44.8933 216.9 45.576 216.943C46.216 216.986 46.792 217.028 47.304 217.071L47.304 238.703C49.2667 238.49 50.824 237.572 51.976 235.951C53.128 234.33 53.704 232.154 53.704 229.423C53.704 227.674 53.5547 225.967 53.256 224.303C52.9147 222.596 52.5093 221.21 52.04 220.143L59.784 218.863C60.04 219.375 60.296 220.058 60.552 220.911C60.808 221.764 61.0213 222.724 61.192 223.791C61.4053 224.815 61.576 225.924 61.704 227.119C61.832 228.314 61.896 229.508 61.896 230.703C61.896 233.732 61.448 236.378 60.552 238.639C59.656 240.858 58.44 242.714 56.904 244.207C55.3253 245.658 53.4693 246.746 51.336 247.471C49.2027 248.154 46.8987 248.495 44.424 248.495ZM40.776 226.095C39.9653 226.138 39.176 226.287 38.408 226.543C37.64 226.756 36.9573 227.119 36.36 227.631C35.7627 228.1 35.272 228.719 34.888 229.487C34.504 230.212 34.312 231.13 34.312 232.239C34.312 233.306 34.504 234.223 34.888 234.991C35.2293 235.759 35.6987 236.399 36.296 236.911C36.8933 237.423 37.5973 237.828 38.408 238.127C39.176 238.383 39.9653 238.575 40.776 238.703V226.095ZM54.152 199.856C54.152 198.107 53.9813 196.869 53.64 196.144C53.2987 195.419 52.6373 195.056 51.656 195.056C50.888 195.056 50.2267 195.525 49.672 196.464C49.0747 197.403 48.4133 198.832 47.688 200.752C47.1333 202.245 46.5573 203.611 45.96 204.848C45.3627 206.043 44.6587 207.067 43.848 207.92C42.9947 208.773 41.992 209.435 40.84 209.904C39.688 210.373 38.3013 210.608 36.68 210.608C33.5227 210.608 31.0267 209.435 29.192 207.088C27.3573 204.741 26.44 201.52 26.44 197.424C26.44 195.376 26.632 193.413 27.016 191.536C27.3573 189.659 27.7413 188.165 28.168 187.056L35.592 188.72C35.208 189.829 34.8667 191.045 34.568 192.368C34.2693 193.648 34.12 195.099 34.12 196.72C34.12 199.707 34.952 201.2 36.616 201.2C37 201.2 37.3413 201.136 37.64 201.008C37.9387 200.88 38.2373 200.624 38.536 200.24C38.792 199.856 39.0907 199.344 39.432 198.704C39.7307 198.021 40.072 197.168 40.456 196.144C41.224 194.053 41.992 192.325 42.76 190.96C43.4853 189.595 44.296 188.528 45.192 187.76C46.0453 186.949 47.0053 186.395 48.072 186.096C49.1387 185.755 50.376 185.584 51.784 185.584C55.112 185.584 57.6293 186.843 59.336 189.36C61.0427 191.835 61.896 195.355 61.896 199.92C61.896 202.907 61.64 205.403 61.128 207.408C60.616 209.371 60.1893 210.736 59.848 211.504L52.104 209.904C52.744 208.283 53.256 206.619 53.64 204.912C53.9813 203.205 54.152 201.52 54.152 199.856ZM61 168.921V178.457H27.336V168.921H61ZM17.608 168.025C19.3573 168.025 20.744 168.601 21.768 169.753C22.7493 170.863 23.24 172.185 23.24 173.721C23.24 175.257 22.7493 176.601 21.768 177.753C20.744 178.863 19.3573 179.417 17.608 179.417C15.8587 179.417 14.4933 178.863 13.512 177.753C12.488 176.601 11.976 175.257 11.976 173.721C11.976 172.185 12.488 170.863 13.512 169.753C14.4933 168.601 15.8587 168.025 17.608 168.025ZM43.08 151.829C48.4133 151.829 51.08 149.675 51.08 145.365C51.08 144.384 50.952 143.467 50.696 142.613C50.44 141.76 50.1413 141.035 49.8 140.437H34.568C34.4827 140.907 34.4187 141.461 34.376 142.101C34.2907 142.741 34.248 143.488 34.248 144.341C34.248 146.859 35.08 148.736 36.744 149.973C38.408 151.211 40.52 151.829 43.08 151.829ZM56.776 130.901C62.28 130.901 66.3547 132.309 69 135.125C71.688 137.899 73.032 142.208 73.032 148.053C73.032 150.101 72.84 152.149 72.456 154.197C72.1147 156.245 71.6453 158.144 71.048 159.893L63.048 158.229C63.6453 156.736 64.1147 155.179 64.456 153.557C64.7973 151.893 64.968 150.016 64.968 147.925C64.968 145.195 64.3707 143.275 63.176 142.165C61.9813 141.013 60.4453 140.437 58.568 140.437H57.352C57.8213 141.461 58.184 142.528 58.44 143.637C58.6533 144.704 58.76 145.877 58.76 147.157C58.76 151.808 57.3947 155.371 54.664 157.845C51.8907 160.32 48.0293 161.557 43.08 161.557C40.6053 161.557 38.3653 161.173 36.36 160.405C34.312 159.637 32.5627 158.528 31.112 157.077C29.6613 155.584 28.552 153.771 27.784 151.637C26.9733 149.504 26.568 147.093 26.568 144.405C26.568 143.253 26.632 142.08 26.76 140.885C26.8453 139.648 26.9733 138.432 27.144 137.237C27.3147 136.043 27.528 134.912 27.784 133.845C27.9973 132.736 28.232 131.755 28.488 130.901H56.776ZM28.488 121.957C28.0187 120.336 27.592 118.245 27.208 115.685C26.7813 113.125 26.568 110.437 26.568 107.622C26.568 104.763 26.952 102.395 27.72 100.517C28.4453 98.5975 29.4907 97.0828 30.856 95.9735C32.2213 94.8642 33.8427 94.0748 35.72 93.6055C37.5973 93.1362 39.688 92.9015 41.992 92.9015H61L61 102.437H43.144C40.072 102.437 37.896 102.843 36.616 103.653C35.336 104.464 34.696 105.979 34.696 108.197C34.696 108.88 34.7387 109.605 34.824 110.373C34.8667 111.141 34.9307 111.824 35.016 112.421H61V121.957H28.488ZM43.912 47.327C37.768 47.327 34.696 49.5883 34.696 54.111C34.696 55.0923 34.824 56.0737 35.08 57.055C35.336 57.9937 35.656 58.7617 36.04 59.359H53.384C53.4693 58.8897 53.5547 58.2923 53.64 57.567C53.6827 56.8417 53.704 56.0523 53.704 55.199C53.704 52.5963 52.808 50.6337 51.016 49.311C49.224 47.9883 46.856 47.327 43.912 47.327ZM44.168 37.599C46.856 37.599 49.288 38.0043 51.464 38.815C53.64 39.583 55.496 40.7137 57.032 42.207C58.568 43.7003 59.7627 45.535 60.616 47.711C61.4267 49.887 61.832 52.3617 61.832 55.135C61.832 56.287 61.768 57.503 61.64 58.783C61.5547 60.0203 61.4267 61.2577 61.256 62.495C61.0853 63.6897 60.8933 64.8417 60.68 65.951C60.424 67.0603 60.168 68.0417 59.912 68.895H12.872L11.336 59.359H28.104C27.6347 58.2923 27.272 57.183 27.016 56.031C26.76 54.879 26.632 53.6417 26.632 52.319C26.632 49.9297 27.0587 47.8177 27.912 45.983C28.7227 44.1483 29.896 42.6123 31.432 41.375C32.968 40.1377 34.824 39.199 37 38.559C39.1333 37.919 41.5227 37.599 44.168 37.599ZM27.336 1.257C33.8213 3.177 39.9013 5.18233 45.576 7.273C51.2507 9.36367 56.7547 11.6463 62.088 14.121C64.008 15.017 65.6293 15.913 66.952 16.809C68.3173 17.705 69.4267 18.6863 70.28 19.753C71.176 20.8197 71.816 22.0357 72.2 23.401C72.6267 24.7237 72.84 26.281 72.84 28.073C72.84 29.5663 72.6907 30.953 72.392 32.233C72.136 33.4703 71.8373 34.4943 71.496 35.305L63.88 33.641C64.2213 32.6597 64.456 31.785 64.584 31.017C64.712 30.249 64.776 29.4383 64.776 28.585C64.776 26.8783 64.3067 25.577 63.368 24.681C62.472 23.7423 61.2133 22.953 59.592 22.313C55.3253 24.489 50.5467 26.665 45.256 28.841C39.9227 31.017 33.9493 33.065 27.336 34.985V24.873C29 24.4463 30.8133 23.9557 32.776 23.401C34.696 22.8037 36.6587 22.185 38.664 21.545C40.6267 20.905 42.5467 20.265 44.424 19.625C46.3013 18.9423 48.008 18.3023 49.544 17.705C48.008 17.1503 46.3013 16.5743 44.424 15.977C42.5467 15.3797 40.6267 14.8037 38.664 14.249C36.6587 13.6517 34.696 13.097 32.776 12.585C30.8133 12.0303 29 11.5397 27.336 11.113L27.336 1.257Z" fill="black"/>
<path fill-rule="evenodd" clip-rule="evenodd" d="M161.002 290C104.195 290 86.6221 259.173 96.6795 194.106C97.1441 191.099 99.7553 188.891 102.798 188.891H219.205C222.248 188.891 224.859 191.099 225.324 194.106C235.381 259.173 217.808 290 161.002 290ZM161.002 264.169C132.024 263.471 117.58 252.203 119.233 220.363C119.399 217.161 122.111 214.722 125.317 214.722H196.723C199.913 214.722 202.615 217.136 202.821 220.32C204.824 251.161 193.076 263.472 161.002 264.169Z" fill="#0A0A0A"/>
<path d="M224.63 157.592V132.845C224.63 113.651 220.202 102.114 210.607 96.3132C196.261 87.6384 177.992 90.1255 165.621 96.9554C163.318 98.2271 160.484 98.2212 158.186 96.9382C145.197 89.6836 124.435 86.2987 110.035 95.946C109.677 96.1858 109.345 96.4754 109.053 96.792C99.449 107.19 97.6902 114.309 97.6902 132.845V157.598C97.6902 161.05 100.488 163.842 103.94 163.842H117.271C120.723 163.842 123.521 161.044 123.521 157.592V133.952C124.628 115.089 147.434 114.634 148.245 133.952V157.592C148.245 161.044 151.043 163.842 154.495 163.842H167.825C171.277 163.842 174.075 161.049 174.075 157.597V132.845C174.813 115.458 197.323 115.458 198.799 132.845V157.592C198.799 161.044 201.597 163.842 205.049 163.842H218.38C221.832 163.842 224.63 161.044 224.63 157.592Z" fill="#0A0A0A"/>
</svg>
