999
"DXF R12 Output" (www.mydxf.blogspot.com)
 0 
SECTION
 2 
HEADER
 9 
$ACADVER
 1 
AC1009
 9 
$EXTMIN
 10 
 0 
 20 
 0 
 9 
$EXTMAX
 10 
 8.5 
 20 
 11 
 0 
ENDSEC
 0 
SECTION
 2 
ENTITIES
0
LINE
8
Layer 1
10
11.618400
20
3.335990
11
12.672462
21
3.467191
0
LINE
8
Layer 1
10
12.672462
20
3.467191
11
13.498000
21
3.860930
0
LINE
8
Layer 1
10
13.498000
20
3.860930
11
14.031387
21
4.512859
0
LINE
8
Layer 1
10
14.031387
20
4.512859
11
14.209200
21
5.418790
0
LINE
8
Layer 1
10
14.209200
20
5.418790
11
14.192200
21
6.045320
0
LINE
8
Layer 1
10
14.192200
20
6.045320
11
14.124500
21
6.519460
0
LINE
8
Layer 1
10
14.124500
20
6.519460
11
9.535570
21
6.519460
0
LINE
8
Layer 1
10
9.535570
20
6.519460
11
9.281570
21
5.892920
0
LINE
8
Layer 1
10
9.281570
20
5.892920
11
9.179970
21
5.130920
0
LINE
8
Layer 1
10
9.179970
20
5.130920
11
9.332370
21
4.345600
0
LINE
8
Layer 1
10
9.332370
20
4.345600
11
9.789574
21
3.784689
0
LINE
8
Layer 1
10
9.789574
20
3.784689
11
10.551583
21
3.448160
0
LINE
8
Layer 1
10
10.551583
20
3.448160
11
11.618400
21
3.335990
0
LINE
8
Layer 1
10
11.618400
20
3.335990
11
11.618400
21
3.335990
0
LINE
8
Layer 1
10
15.851700
20
9.042520
11
16.054900
21
8.263590
0
LINE
8
Layer 1
10
16.054900
20
8.263590
11
16.207300
21
7.332250
0
LINE
8
Layer 1
10
16.207300
20
7.332250
11
16.308900
21
6.350120
0
LINE
8
Layer 1
10
16.308900
20
6.350120
11
16.359700
21
5.401860
0
LINE
8
Layer 1
10
16.359700
20
5.401860
11
16.279288
21
4.360490
0
LINE
8
Layer 1
10
16.279288
20
4.360490
11
16.038000
21
3.437590
0
LINE
8
Layer 1
10
16.038000
20
3.437590
11
15.648525
21
2.641694
0
LINE
8
Layer 1
10
15.648525
20
2.641694
11
15.123600
21
1.981330
0
LINE
8
Layer 1
10
15.123600
20
1.981330
11
14.454700
21
1.456465
0
LINE
8
Layer 1
10
14.454700
20
1.456465
11
13.667300
21
1.066930
0
LINE
8
Layer 1
10
13.667300
20
1.066930
11
12.752912
21
0.838329
0
LINE
8
Layer 1
10
12.752912
20
0.838329
11
11.736900
21
0.762129
0
LINE
8
Layer 1
10
11.736900
20
0.762129
11
9.789570
21
1.033060
0
LINE
8
Layer 1
10
9.789570
20
1.033060
11
8.976769
21
1.363294
0
LINE
8
Layer 1
10
8.976769
20
1.363294
11
8.299440
21
1.811990
0
LINE
8
Layer 1
10
8.299440
20
1.811990
11
7.761809
21
2.374995
0
LINE
8
Layer 1
10
7.761809
20
2.374995
11
7.368110
21
3.048130
0
LINE
8
Layer 1
10
7.368110
20
3.048130
11
7.126803
21
3.843994
0
LINE
8
Layer 1
10
7.126803
20
3.843994
11
7.046370
21
4.741460
0
LINE
8
Layer 1
10
7.046370
20
4.741460
11
7.147970
21
5.672790
0
LINE
8
Layer 1
10
7.147970
20
5.672790
11
7.435840
21
6.519460
0
LINE
8
Layer 1
10
7.435840
20
6.519460
11
3.405710
21
6.519460
0
LINE
8
Layer 1
10
3.405710
20
6.519460
11
2.999310
21
9.042520
0
LINE
8
Layer 1
10
2.999310
20
9.042520
11
15.851700
21
9.042520
0
LINE
8
Layer 1
10
15.851700
20
9.042520
11
15.851700
21
9.042520
0
LINE
8
Layer 1
10
11.753800
20
10.981600
11
10.644696
21
11.070525
0
LINE
8
Layer 1
10
10.644696
20
11.070525
11
9.687970
21
11.337200
0
LINE
8
Layer 1
10
9.687970
20
11.337200
11
8.866705
21
11.764862
0
LINE
8
Layer 1
10
8.866705
20
11.764862
11
8.197840
21
12.302400
0
LINE
8
Layer 1
10
8.197840
20
12.302400
11
7.677143
21
12.937413
0
LINE
8
Layer 1
10
7.677143
20
12.937413
11
7.300370
21
13.657100
0
LINE
8
Layer 1
10
7.300370
20
13.657100
11
7.071770
21
14.444550
0
LINE
8
Layer 1
10
7.071770
20
14.444550
11
6.995570
21
15.248800
0
LINE
8
Layer 1
10
6.995570
20
15.248800
11
7.068595
21
16.147397
0
LINE
8
Layer 1
10
7.068595
20
16.147397
11
7.287671
21
16.946450
0
LINE
8
Layer 1
10
7.287671
20
16.946450
11
7.652796
21
17.645978
0
LINE
8
Layer 1
10
7.652796
20
17.645978
11
8.163970
21
18.246000
0
LINE
8
Layer 1
10
8.163970
20
18.246000
11
8.808487
21
18.727514
0
LINE
8
Layer 1
10
8.808487
20
18.727514
11
9.590587
21
19.071487
0
LINE
8
Layer 1
10
9.590587
20
19.071487
11
10.510287
21
19.277892
0
LINE
8
Layer 1
10
10.510287
20
19.277892
11
11.567600
21
19.346700
0
LINE
8
Layer 1
10
11.567600
20
19.346700
11
12.058600
21
19.329800
0
LINE
8
Layer 1
10
12.058600
20
19.329800
11
12.515800
21
19.295900
0
LINE
8
Layer 1
10
12.515800
20
19.295900
11
12.515800
21
13.572400
0
LINE
8
Layer 1
10
12.515800
20
13.572400
11
13.214337
21
13.796813
0
LINE
8
Layer 1
10
13.214337
20
13.796813
11
13.752000
21
14.300600
0
LINE
8
Layer 1
10
13.752000
20
14.300600
11
14.094900
21
15.054063
0
LINE
8
Layer 1
10
14.094900
20
15.054063
11
14.209200
21
16.027800
0
LINE
8
Layer 1
10
14.209200
20
16.027800
11
14.090600
21
17.382400
0
LINE
8
Layer 1
10
14.090600
20
17.382400
11
13.768900
21
18.483100
0
LINE
8
Layer 1
10
13.768900
20
18.483100
11
15.817800
21
18.821800
0
LINE
8
Layer 1
10
15.817800
20
18.821800
11
16.021000
21
18.279900
0
LINE
8
Layer 1
10
16.021000
20
18.279900
11
16.190400
21
17.517900
0
LINE
8
Layer 1
10
16.190400
20
17.517900
11
16.325800
21
16.637400
0
LINE
8
Layer 1
10
16.325800
20
16.637400
11
16.376600
21
15.689100
0
LINE
8
Layer 1
10
16.376600
20
15.689100
11
16.287712
21
14.563050
0
LINE
8
Layer 1
10
16.287712
20
14.563050
11
16.021000
21
13.589400
0
LINE
8
Layer 1
10
16.021000
20
13.589400
11
15.601925
21
12.780762
0
LINE
8
Layer 1
10
15.601925
20
12.780762
11
15.055800
21
12.116200
0
LINE
8
Layer 1
10
15.055800
20
12.116200
11
14.374250
21
11.612362
0
LINE
8
Layer 1
10
14.374250
20
11.612362
11
13.582600
21
11.252600
0
LINE
8
Layer 1
10
13.582600
20
11.252600
11
11.753800
21
10.981600
0
LINE
8
Layer 1
10
11.753800
20
10.981600
11
11.753800
21
10.981600
0
LINE
8
Layer 1
10
10.788600
20
16.908300
11
10.162100
21
16.789800
0
LINE
8
Layer 1
10
10.162100
20
16.789800
11
9.620240
21
16.501900
0
LINE
8
Layer 1
10
9.620240
20
16.501900
11
9.230770
21
16.010800
0
LINE
8
Layer 1
10
9.230770
20
16.010800
11
9.078370
21
15.282700
0
LINE
8
Layer 1
10
9.078370
20
15.282700
11
9.230770
21
14.554600
0
LINE
8
Layer 1
10
9.230770
20
14.554600
11
9.603300
21
14.046600
0
LINE
8
Layer 1
10
9.603300
20
14.046600
11
10.162100
21
13.724800
0
LINE
8
Layer 1
10
10.162100
20
13.724800
11
10.788600
21
13.572400
0
LINE
8
Layer 1
10
10.788600
20
13.572400
11
10.788600
21
16.908300
0
LINE
8
Layer 1
10
10.788600
20
16.908300
11
10.788600
21
16.908300
0
LINE
8
Layer 1
10
14.327700
20
23.850700
11
14.192200
21
24.832800
0
LINE
8
Layer 1
10
14.192200
20
24.832800
11
13.993238
21
25.048713
0
LINE
8
Layer 1
10
13.993238
20
25.048713
11
13.667300
21
25.120700
0
LINE
8
Layer 1
10
13.667300
20
25.120700
11
13.383662
21
25.027600
0
LINE
8
Layer 1
10
13.383662
20
25.027600
11
13.142400
21
24.748200
0
LINE
8
Layer 1
10
13.142400
20
24.748200
11
12.617400
21
23.613600
0
LINE
8
Layer 1
10
12.617400
20
23.613600
11
12.160200
21
22.529900
0
LINE
8
Layer 1
10
12.160200
20
22.529900
11
11.601400
21
21.717100
0
LINE
8
Layer 1
10
11.601400
20
21.717100
11
10.805600
21
21.192200
0
LINE
8
Layer 1
10
10.805600
20
21.192200
11
9.704900
21
21.005900
0
LINE
8
Layer 1
10
9.704900
20
21.005900
11
8.583081
21
21.238712
0
LINE
8
Layer 1
10
8.583081
20
21.238712
11
7.723710
21
21.937200
0
LINE
8
Layer 1
10
7.723710
20
21.937200
11
7.177604
21
23.042150
0
LINE
8
Layer 1
10
7.177604
20
23.042150
11
6.995570
21
24.494200
0
LINE
8
Layer 1
10
6.995570
20
24.494200
11
7.147970
21
26.052000
0
LINE
8
Layer 1
10
7.147970
20
26.052000
11
7.452770
21
27.237400
0
LINE
8
Layer 1
10
7.452770
20
27.237400
11
9.417040
21
26.797100
0
LINE
8
Layer 1
10
9.417040
20
26.797100
11
9.146110
21
25.831900
0
LINE
8
Layer 1
10
9.146110
20
25.831900
11
9.027570
21
24.680400
0
LINE
8
Layer 1
10
9.027570
20
24.680400
11
9.192673
21
23.791387
0
LINE
8
Layer 1
10
9.192673
20
23.791387
11
9.399048
21
23.569167
0
LINE
8
Layer 1
10
9.399048
20
23.569167
11
9.687970
21
23.495100
0
LINE
8
Layer 1
10
9.687970
20
23.495100
11
9.958900
21
23.545900
0
LINE
8
Layer 1
10
9.958900
20
23.545900
11
10.196000
21
23.749100
0
LINE
8
Layer 1
10
10.196000
20
23.749100
11
10.433000
21
24.155500
0
LINE
8
Layer 1
10
10.433000
20
24.155500
11
10.704000
21
24.832800
0
LINE
8
Layer 1
10
10.704000
20
24.832800
11
11.313600
21
26.204400
0
LINE
8
Layer 1
10
11.313600
20
26.204400
11
11.957000
21
27.051100
0
LINE
8
Layer 1
10
11.957000
20
27.051100
11
12.719000
21
27.491400
0
LINE
8
Layer 1
10
12.719000
20
27.491400
11
13.701200
21
27.626800
0
LINE
8
Layer 1
10
13.701200
20
27.626800
11
14.861088
21
27.377013
0
LINE
8
Layer 1
10
14.861088
20
27.377013
11
15.699300
21
26.627800
0
LINE
8
Layer 1
10
15.699300
20
26.627800
11
16.207300
21
25.438137
0
LINE
8
Layer 1
10
16.207300
20
25.438137
11
16.376600
21
23.833800
0
LINE
8
Layer 1
10
16.376600
20
23.833800
11
16.173400
21
21.852600
0
LINE
8
Layer 1
10
16.173400
20
21.852600
11
15.834800
21
20.768800
0
LINE
8
Layer 1
10
15.834800
20
20.768800
11
13.785800
21
21.192200
0
LINE
8
Layer 1
10
13.785800
20
21.192200
11
14.192200
21
22.513000
0
LINE
8
Layer 1
10
14.192200
20
22.513000
11
14.327700
21
23.850700
0
LINE
8
Layer 1
10
14.327700
20
23.850700
11
14.327700
21
23.850700
0
LINE
8
Layer 1
10
16.139600
20
32.035600
11
16.139600
21
29.512500
0
LINE
8
Layer 1
10
16.139600
20
29.512500
11
7.232640
21
29.512500
0
LINE
8
Layer 1
10
7.232640
20
29.512500
11
7.232640
21
32.035600
0
LINE
8
Layer 1
10
7.232640
20
32.035600
11
16.139600
21
32.035600
0
LINE
8
Layer 1
10
16.139600
20
32.035600
11
16.139600
21
32.035600
0
LINE
8
Layer 1
10
4.658780
20
32.272600
11
5.281072
21
32.158300
0
LINE
8
Layer 1
10
5.281072
20
32.158300
11
5.759440
21
31.815400
0
LINE
8
Layer 1
10
5.759440
20
31.815400
11
6.051540
21
31.332800
0
LINE
8
Layer 1
10
6.051540
20
31.332800
11
6.148910
21
30.765600
0
LINE
8
Layer 1
10
6.148910
20
30.765600
11
6.051540
21
30.194100
0
LINE
8
Layer 1
10
6.051540
20
30.194100
11
5.759440
21
29.698800
0
LINE
8
Layer 1
10
5.759440
20
29.698800
11
5.281072
21
29.368513
0
LINE
8
Layer 1
10
5.281072
20
29.368513
11
4.658780
21
29.258500
0
LINE
8
Layer 1
10
4.658780
20
29.258500
11
4.040711
21
29.368513
0
LINE
8
Layer 1
10
4.040711
20
29.368513
11
3.575050
21
29.698800
0
LINE
8
Layer 1
10
3.575050
20
29.698800
11
3.270247
21
30.194100
0
LINE
8
Layer 1
10
3.270247
20
30.194100
11
3.168650
21
30.765600
0
LINE
8
Layer 1
10
3.168650
20
30.765600
11
3.270247
21
31.332800
0
LINE
8
Layer 1
10
3.270247
20
31.332800
11
3.575050
21
31.815400
0
LINE
8
Layer 1
10
3.575050
20
31.815400
11
4.040711
21
32.158300
0
LINE
8
Layer 1
10
4.040711
20
32.158300
11
4.658780
21
32.272600
0
LINE
8
Layer 1
10
4.658780
20
32.272600
11
4.658780
21
32.272600
0
LINE
8
Layer 1
10
11.398200
20
36.557800
11
12.324242
21
36.664666
0
LINE
8
Layer 1
10
12.324242
20
36.664666
11
12.985712
21
36.985300
0
LINE
8
Layer 1
10
12.985712
20
36.985300
11
13.382602
21
37.519759
0
LINE
8
Layer 1
10
13.382602
20
37.519759
11
13.514900
21
38.268100
0
LINE
8
Layer 1
10
13.514900
20
38.268100
11
13.413300
21
38.996200
0
LINE
8
Layer 1
10
13.413300
20
38.996200
11
13.176200
21
39.572000
0
LINE
8
Layer 1
10
13.176200
20
39.572000
11
9.146110
21
39.572000
0
LINE
8
Layer 1
10
9.146110
20
39.572000
11
9.095310
21
39.131700
0
LINE
8
Layer 1
10
9.095310
20
39.131700
11
9.061440
21
38.539000
0
LINE
8
Layer 1
10
9.061440
20
38.539000
11
9.226539
21
37.666863
0
LINE
8
Layer 1
10
9.226539
20
37.666863
11
9.721840
21
37.048900
0
LINE
8
Layer 1
10
9.721840
20
37.048900
11
10.471130
21
36.680500
0
LINE
8
Layer 1
10
10.471130
20
36.680500
11
11.398200
21
36.557800
0
LINE
8
Layer 1
10
11.398200
20
36.557800
11
11.398200
21
36.557800
0
LINE
8
Layer 1
10
15.022000
20
42.095000
11
16.043255
21
42.025155
0
LINE
8
Layer 1
10
16.043255
20
42.025155
11
16.922713
21
41.815613
0
LINE
8
Layer 1
10
16.922713
20
41.815613
11
17.660364
21
41.466364
0
LINE
8
Layer 1
10
17.660364
20
41.466364
11
18.256200
21
40.977400
0
LINE
8
Layer 1
10
18.256200
20
40.977400
11
18.722925
21
40.350809
0
LINE
8
Layer 1
10
18.722925
20
40.350809
11
19.056300
21
39.571875
0
LINE
8
Layer 1
10
19.056300
20
39.571875
11
19.256325
21
38.640578
0
LINE
8
Layer 1
10
19.256325
20
38.640578
11
19.323000
21
37.556900
0
LINE
8
Layer 1
10
19.323000
20
37.556900
11
19.170600
21
35.931300
0
LINE
8
Layer 1
10
19.170600
20
35.931300
11
18.798100
21
34.424200
0
LINE
8
Layer 1
10
18.798100
20
34.424200
11
16.681400
21
34.864500
0
LINE
8
Layer 1
10
16.681400
20
34.864500
11
17.054000
21
36.100600
0
LINE
8
Layer 1
10
17.054000
20
36.100600
11
17.189400
21
37.590800
0
LINE
8
Layer 1
10
17.189400
20
37.590800
11
17.070887
21
38.513525
0
LINE
8
Layer 1
10
17.070887
20
38.513525
11
16.715300
21
39.114800
0
LINE
8
Layer 1
10
16.715300
20
39.114800
11
16.173425
21
39.457700
0
LINE
8
Layer 1
10
16.173425
20
39.457700
11
15.496100
21
39.572000
0
LINE
8
Layer 1
10
15.496100
20
39.572000
11
15.174400
21
39.572000
0
LINE
8
Layer 1
10
15.174400
20
39.572000
11
15.462200
21
38.725300
0
LINE
8
Layer 1
10
15.462200
20
38.725300
11
15.546900
21
37.794000
0
LINE
8
Layer 1
10
15.546900
20
37.794000
11
15.479173
21
36.925034
0
LINE
8
Layer 1
10
15.479173
20
36.925034
11
15.275988
21
36.164050
0
LINE
8
Layer 1
10
15.275988
20
36.164050
11
14.937333
21
35.511066
0
LINE
8
Layer 1
10
14.937333
20
35.511066
11
14.463200
21
34.966100
0
LINE
8
Layer 1
10
14.463200
20
34.966100
11
13.858870
21
34.536403
0
LINE
8
Layer 1
10
13.858870
20
34.536403
11
13.146587
21
34.229500
0
LINE
8
Layer 1
10
13.146587
20
34.229500
11
11.398200
21
33.984000
0
LINE
8
Layer 1
10
11.398200
20
33.984000
11
10.462668
21
34.060200
0
LINE
8
Layer 1
10
10.462668
20
34.060200
11
9.620240
21
34.288800
0
LINE
8
Layer 1
10
9.620240
20
34.288800
11
8.866710
21
34.661288
0
LINE
8
Layer 1
10
8.866710
20
34.661288
11
8.231710
21
35.169300
0
LINE
8
Layer 1
10
8.231710
20
35.169300
11
7.723704
21
35.825350
0
LINE
8
Layer 1
10
7.723704
20
35.825350
11
7.351170
21
36.608600
0
LINE
8
Layer 1
10
7.351170
20
36.608600
11
7.109871
21
37.510300
0
LINE
8
Layer 1
10
7.109871
20
37.510300
11
7.029440
21
38.522100
0
LINE
8
Layer 1
10
7.029440
20
38.522100
11
7.080240
21
39.453400
0
LINE
8
Layer 1
10
7.080240
20
39.453400
11
7.181840
21
40.418600
0
LINE
8
Layer 1
10
7.181840
20
40.418600
11
7.351170
21
41.316100
0
LINE
8
Layer 1
10
7.351170
20
41.316100
11
7.537440
21
42.095000
0
LINE
8
Layer 1
10
7.537440
20
42.095000
11
15.022000
21
42.095000
0
LINE
8
Layer 1
10
15.022000
20
42.095000
11
15.022000
21
42.095000
0
LINE
8
Layer 1
10
7.537440
20
44.461500
11
7.198770
21
46.120900
0
LINE
8
Layer 1
10
7.198770
20
46.120900
11
7.029440
21
48.254200
0
LINE
8
Layer 1
10
7.029440
20
48.254200
11
7.105640
21
49.291500
0
LINE
8
Layer 1
10
7.105640
20
49.291500
11
7.334240
21
50.134100
0
LINE
8
Layer 1
10
7.334240
20
50.134100
11
7.685606
21
50.815550
0
LINE
8
Layer 1
10
7.685606
20
50.815550
11
8.163970
21
51.336200
0
LINE
8
Layer 1
10
8.163970
20
51.336200
11
8.756638
21
51.712987
0
LINE
8
Layer 1
10
8.756638
20
51.712987
11
9.450900
21
51.962800
0
LINE
8
Layer 1
10
9.450900
20
51.962800
11
11.110400
21
52.149000
0
LINE
8
Layer 1
10
11.110400
20
52.149000
11
16.139600
21
52.149000
0
LINE
8
Layer 1
10
16.139600
20
52.149000
11
16.139600
21
49.626100
0
LINE
8
Layer 1
10
16.139600
20
49.626100
11
11.415200
21
49.626100
0
LINE
8
Layer 1
10
11.415200
20
49.626100
11
10.373771
21
49.545613
0
LINE
8
Layer 1
10
10.373771
20
49.545613
11
9.687970
21
49.304400
0
LINE
8
Layer 1
10
9.687970
20
49.304400
11
9.306969
21
48.842862
0
LINE
8
Layer 1
10
9.306969
20
48.842862
11
9.179970
21
48.102100
0
LINE
8
Layer 1
10
9.179970
20
48.102100
11
9.213840
21
47.526400
0
LINE
8
Layer 1
10
9.213840
20
47.526400
11
9.264640
21
46.984500
0
LINE
8
Layer 1
10
9.264640
20
46.984500
11
16.139600
21
46.984500
0
LINE
8
Layer 1
10
16.139600
20
46.984500
11
16.139600
21
44.461500
0
LINE
8
Layer 1
10
16.139600
20
44.461500
11
7.537440
21
44.461500
0
LINE
8
Layer 1
10
7.537440
20
44.461500
11
7.537440
21
44.461500
0
LINE
8
Layer 1
10
11.618400
20
64.207300
11
10.551583
21
64.095117
0
LINE
8
Layer 1
10
10.551583
20
64.095117
11
9.789574
21
63.758563
0
LINE
8
Layer 1
10
9.789574
20
63.758563
11
9.332370
21
63.197627
0
LINE
8
Layer 1
10
9.332370
20
63.197627
11
9.179970
21
62.412300
0
LINE
8
Layer 1
10
9.179970
20
62.412300
11
9.281570
21
61.633400
0
LINE
8
Layer 1
10
9.281570
20
61.633400
11
9.535570
21
61.023800
0
LINE
8
Layer 1
10
9.535570
20
61.023800
11
14.124500
21
61.023800
0
LINE
8
Layer 1
10
14.124500
20
61.023800
11
14.192200
21
61.498000
0
LINE
8
Layer 1
10
14.192200
20
61.498000
11
14.209200
21
62.124500
0
LINE
8
Layer 1
10
14.209200
20
62.124500
11
14.031387
21
63.030412
0
LINE
8
Layer 1
10
14.031387
20
63.030412
11
13.498000
21
63.682300
0
LINE
8
Layer 1
10
13.498000
20
63.682300
11
12.672462
21
64.076050
0
LINE
8
Layer 1
10
12.672462
20
64.076050
11
11.618400
21
64.207300
0
LINE
8
Layer 1
10
11.618400
20
64.207300
11
11.618400
21
64.207300
0
LINE
8
Layer 1
10
11.686100
20
66.781100
11
12.702112
21
66.700688
0
LINE
8
Layer 1
10
12.702112
20
66.700688
11
13.616500
21
66.459400
0
LINE
8
Layer 1
10
13.616500
20
66.459400
11
14.416588
21
66.082612
0
LINE
8
Layer 1
10
14.416588
20
66.082612
11
15.089700
21
65.561900
0
LINE
8
Layer 1
10
15.089700
20
65.561900
11
15.631575
21
64.901525
0
LINE
8
Layer 1
10
15.631575
20
64.901525
11
16.038000
21
64.105700
0
LINE
8
Layer 1
10
16.038000
20
64.105700
11
16.279288
21
63.182800
0
LINE
8
Layer 1
10
16.279288
20
63.182800
11
16.359700
21
62.141400
0
LINE
8
Layer 1
10
16.359700
20
62.141400
11
16.308900
21
61.176200
0
LINE
8
Layer 1
10
16.308900
20
61.176200
11
16.207300
21
60.194100
0
LINE
8
Layer 1
10
16.207300
20
60.194100
11
16.054900
21
59.279700
0
LINE
8
Layer 1
10
16.054900
20
59.279700
11
15.851700
21
58.500800
0
LINE
8
Layer 1
10
15.851700
20
58.500800
11
3.405710
21
58.500800
0
LINE
8
Layer 1
10
3.405710
20
58.500800
11
2.999310
21
61.023800
0
LINE
8
Layer 1
10
2.999310
20
61.023800
11
7.435840
21
61.023800
0
LINE
8
Layer 1
10
7.435840
20
61.023800
11
7.147970
21
61.904300
0
LINE
8
Layer 1
10
7.147970
20
61.904300
11
7.046370
21
62.886500
0
LINE
8
Layer 1
10
7.046370
20
62.886500
11
7.131041
21
63.779713
0
LINE
8
Layer 1
10
7.131041
20
63.779713
11
7.385040
21
64.562900
0
LINE
8
Layer 1
10
7.385040
20
64.562900
11
7.778742
21
65.231750
0
LINE
8
Layer 1
10
7.778742
20
65.231750
11
8.316370
21
65.782100
0
LINE
8
Layer 1
10
8.316370
20
65.782100
11
8.989471
21
66.213850
0
LINE
8
Layer 1
10
8.989471
20
66.213850
11
9.789570
21
66.527100
0
LINE
8
Layer 1
10
9.789570
20
66.527100
11
11.686100
21
66.781100
0
LINE
8
Layer 1
10
11.686100
20
66.781100
11
11.686100
21
66.781100
0
LINE
8
Layer 1
10
7.232640
20
76.396600
11
12.058600
21
74.804900
0
LINE
8
Layer 1
10
12.058600
20
74.804900
11
16.427400
21
72.993000
0
LINE
8
Layer 1
10
16.427400
20
72.993000
11
17.714400
21
72.281800
0
LINE
8
Layer 1
10
17.714400
20
72.281800
11
18.594900
21
71.502900
0
LINE
8
Layer 1
10
18.594900
20
71.502900
11
19.102900
21
70.537700
0
LINE
8
Layer 1
10
19.102900
20
70.537700
11
19.272200
21
69.301600
0
LINE
8
Layer 1
10
19.272200
20
69.301600
11
19.153700
21
68.200900
0
LINE
8
Layer 1
10
19.153700
20
68.200900
11
18.916600
21
67.388100
0
LINE
8
Layer 1
10
18.916600
20
67.388100
11
16.901600
21
67.828400
0
LINE
8
Layer 1
10
16.901600
20
67.828400
11
17.087800
21
68.522600
0
LINE
8
Layer 1
10
17.087800
20
68.522600
11
17.138600
21
69.166100
0
LINE
8
Layer 1
10
17.138600
20
69.166100
11
17.045500
21
69.763025
0
LINE
8
Layer 1
10
17.045500
20
69.763025
11
16.766100
21
70.199000
0
LINE
8
Layer 1
10
16.766100
20
70.199000
11
15.767000
21
70.825600
0
LINE
8
Layer 1
10
15.767000
20
70.825600
11
11.974000
21
69.098400
0
LINE
8
Layer 1
10
11.974000
20
69.098400
11
7.232640
21
67.472800
0
LINE
8
Layer 1
10
7.232640
20
67.472800
11
7.232640
21
70.148200
0
LINE
8
Layer 1
10
7.232640
20
70.148200
11
8.671970
21
70.537700
0
LINE
8
Layer 1
10
8.671970
20
70.537700
11
10.229800
21
71.028800
0
LINE
8
Layer 1
10
10.229800
20
71.028800
11
11.753800
21
71.536800
0
LINE
8
Layer 1
10
11.753800
20
71.536800
11
13.108500
21
72.044800
0
LINE
8
Layer 1
10
13.108500
20
72.044800
11
11.753800
21
72.502000
0
LINE
8
Layer 1
10
11.753800
20
72.502000
11
10.229800
21
72.959200
0
LINE
8
Layer 1
10
10.229800
20
72.959200
11
8.671970
21
73.399400
0
LINE
8
Layer 1
10
8.671970
20
73.399400
11
7.232640
21
73.788900
0
LINE
8
Layer 1
10
7.232640
20
73.788900
11
7.232640
21
76.396600
0
LINE
8
Layer 1
10
7.232640
20
76.396600
11
7.232640
21
76.396600
0
LINE
8
Layer 1
10
42.598400
20
0.000130
11
39.901137
21
0.095932
0
LINE
8
Layer 1
10
39.901137
20
0.095932
11
37.442674
21
0.384220
0
LINE
8
Layer 1
10
37.442674
20
0.384220
11
35.218514
21
0.866318
0
LINE
8
Layer 1
10
35.218514
20
0.866318
11
33.224161
21
1.543547
0
LINE
8
Layer 1
10
33.224161
20
1.543547
11
31.455116
21
2.417231
0
LINE
8
Layer 1
10
31.455116
20
2.417231
11
29.906883
21
3.488692
0
LINE
8
Layer 1
10
29.906883
20
3.488692
11
28.574964
21
4.759254
0
LINE
8
Layer 1
10
28.574964
20
4.759254
11
27.454863
21
6.230239
0
LINE
8
Layer 1
10
27.454863
20
6.230239
11
26.542081
21
7.902970
0
LINE
8
Layer 1
10
26.542081
20
7.902970
11
25.832122
21
9.778770
0
LINE
8
Layer 1
10
25.832122
20
9.778770
11
25.320488
21
11.858962
0
LINE
8
Layer 1
10
25.320488
20
11.858962
11
25.002683
21
14.144869
0
LINE
8
Layer 1
10
25.002683
20
14.144869
11
24.874209
21
16.637813
0
LINE
8
Layer 1
10
24.874209
20
16.637813
11
24.930568
21
19.339118
0
LINE
8
Layer 1
10
24.930568
20
19.339118
11
25.167264
21
22.250106
0
LINE
8
Layer 1
10
25.167264
20
22.250106
11
25.579800
21
25.372100
0
LINE
8
Layer 1
10
25.579800
20
25.372100
11
25.771383
21
25.923337
0
LINE
8
Layer 1
10
25.771383
20
25.923337
11
26.133412
21
26.360350
0
LINE
8
Layer 1
10
26.133412
20
26.360350
11
26.623336
21
26.648187
0
LINE
8
Layer 1
10
26.623336
20
26.648187
11
27.198600
21
26.751900
0
LINE
8
Layer 1
10
27.198600
20
26.751900
11
57.997900
21
26.751900
0
LINE
8
Layer 1
10
57.997900
20
26.751900
11
58.573223
21
26.648187
0
LINE
8
Layer 1
10
58.573223
20
26.648187
11
59.063187
21
26.360350
0
LINE
8
Layer 1
10
59.063187
20
26.360350
11
59.425258
21
25.923337
0
LINE
8
Layer 1
10
59.425258
20
25.923337
11
59.616900
21
25.372100
0
LINE
8
Layer 1
10
59.616900
20
25.372100
11
60.029400
21
22.250106
0
LINE
8
Layer 1
10
60.029400
20
22.250106
11
60.266066
21
19.339118
0
LINE
8
Layer 1
10
60.266066
20
19.339118
11
60.322401
21
16.637813
0
LINE
8
Layer 1
10
60.322401
20
16.637813
11
60.193906
21
14.144869
0
LINE
8
Layer 1
10
60.193906
20
14.144869
11
59.876086
21
11.858962
0
LINE
8
Layer 1
10
59.876086
20
11.858962
11
59.364443
21
9.778770
0
LINE
8
Layer 1
10
59.364443
20
9.778770
11
58.654480
21
7.902970
0
LINE
8
Layer 1
10
58.654480
20
7.902970
11
57.741700
21
6.230239
0
LINE
8
Layer 1
10
57.741700
20
6.230239
11
56.621606
21
4.759254
0
LINE
8
Layer 1
10
56.621606
20
4.759254
11
55.289701
21
3.488692
0
LINE
8
Layer 1
10
55.289701
20
3.488692
11
53.741487
21
2.417231
0
LINE
8
Layer 1
10
53.741487
20
2.417231
11
51.972469
21
1.543547
0
LINE
8
Layer 1
10
51.972469
20
1.543547
11
49.978148
21
0.866318
0
LINE
8
Layer 1
10
49.978148
20
0.866318
11
47.754027
21
0.384220
0
LINE
8
Layer 1
10
47.754027
20
0.384220
11
45.295610
21
0.095932
0
LINE
8
Layer 1
10
45.295610
20
0.095932
11
42.598400
21
0.000130
0
LINE
8
Layer 1
10
42.598400
20
0.000130
11
42.598400
21
0.000130
0
LINE
8
Layer 1
10
42.598400
20
6.834570
11
39.904303
21
7.040087
0
LINE
8
Layer 1
10
39.904303
20
7.040087
11
37.575566
21
7.538804
0
LINE
8
Layer 1
10
37.575566
20
7.538804
11
35.617033
21
8.361730
0
LINE
8
Layer 1
10
35.617033
20
8.361730
11
34.033550
21
9.539878
0
LINE
8
Layer 1
10
34.033550
20
9.539878
11
32.829961
21
11.104257
0
LINE
8
Layer 1
10
32.829961
20
11.104257
11
32.011109
21
13.085880
0
LINE
8
Layer 1
10
32.011109
20
13.085880
11
31.581841
21
15.515757
0
LINE
8
Layer 1
10
31.581841
20
15.515757
11
31.547000
21
18.424900
0
LINE
8
Layer 1
10
31.547000
20
18.424900
11
31.697758
21
19.015516
0
LINE
8
Layer 1
10
31.697758
20
19.015516
11
32.050238
21
19.488850
0
LINE
8
Layer 1
10
32.050238
20
19.488850
11
32.553523
21
19.803334
0
LINE
8
Layer 1
10
32.553523
20
19.803334
11
33.156700
21
19.917400
0
LINE
8
Layer 1
10
33.156700
20
19.917400
11
52.049600
21
19.917400
0
LINE
8
Layer 1
10
52.049600
20
19.917400
11
52.650092
21
19.804441
0
LINE
8
Layer 1
10
52.650092
20
19.804441
11
53.152362
21
19.492750
0
LINE
8
Layer 1
10
53.152362
20
19.492750
11
53.506602
21
19.023109
0
LINE
8
Layer 1
10
53.506602
20
19.023109
11
53.663000
21
18.436300
0
LINE
8
Layer 1
10
53.663000
20
18.436300
11
53.687774
21
15.602540
0
LINE
8
Layer 1
10
53.687774
20
15.602540
11
53.351080
21
13.206964
0
LINE
8
Layer 1
10
53.351080
20
13.206964
11
52.632530
21
11.228129
0
LINE
8
Layer 1
10
52.632530
20
11.228129
11
51.511737
21
9.644593
0
LINE
8
Layer 1
10
51.511737
20
9.644593
11
49.968315
21
8.434911
0
LINE
8
Layer 1
10
49.968315
20
8.434911
11
47.981877
21
7.577642
0
LINE
8
Layer 1
10
47.981877
20
7.577642
11
45.532034
21
7.051343
0
LINE
8
Layer 1
10
45.532034
20
7.051343
11
42.598400
21
6.834570
0
LINE
8
Layer 1
10
42.598400
20
6.834570
11
42.598400
21
6.834570
0
LINE
8
Layer 1
10
59.433300
20
35.033000
11
59.433300
21
41.580700
0
LINE
8
Layer 1
10
59.433300
20
41.580700
11
59.210570
21
45.017584
0
LINE
8
Layer 1
10
59.210570
20
45.017584
11
58.928722
21
46.466023
0
LINE
8
Layer 1
10
58.928722
20
46.466023
11
58.530163
21
47.742400
0
LINE
8
Layer 1
10
58.530163
20
47.742400
11
58.012602
21
48.852671
0
LINE
8
Layer 1
10
58.012602
20
48.852671
11
57.373748
21
49.802791
0
LINE
8
Layer 1
10
57.373748
20
49.802791
11
56.611312
21
50.598715
0
LINE
8
Layer 1
10
56.611312
20
50.598715
11
55.723000
21
51.246400
0
LINE
8
Layer 1
10
55.723000
20
51.246400
11
54.256036
21
51.972188
0
LINE
8
Layer 1
10
54.256036
20
51.972188
11
52.722217
21
52.442248
0
LINE
8
Layer 1
10
52.722217
20
52.442248
11
51.151993
21
52.677725
0
LINE
8
Layer 1
10
51.151993
20
52.677725
11
49.575812
21
52.699762
0
LINE
8
Layer 1
10
49.575812
20
52.699762
11
48.024124
21
52.529504
0
LINE
8
Layer 1
10
48.024124
20
52.529504
11
46.527377
21
52.188095
0
LINE
8
Layer 1
10
46.527377
20
52.188095
11
45.116019
21
51.696679
0
LINE
8
Layer 1
10
45.116019
20
51.696679
11
43.820500
21
51.076400
0
LINE
8
Layer 1
10
43.820500
20
51.076400
11
42.836413
21
50.825238
0
LINE
8
Layer 1
10
42.836413
20
50.825238
11
41.853300
21
51.081000
0
LINE
8
Layer 1
10
41.853300
20
51.081000
11
40.475472
21
51.748049
0
LINE
8
Layer 1
10
40.475472
20
51.748049
11
38.948656
21
52.290708
0
LINE
8
Layer 1
10
38.948656
20
52.290708
11
37.316681
21
52.680565
0
LINE
8
Layer 1
10
37.316681
20
52.680565
11
35.623375
21
52.889212
0
LINE
8
Layer 1
10
35.623375
20
52.889212
11
33.912566
21
52.888239
0
LINE
8
Layer 1
10
33.912566
20
52.888239
11
32.228081
21
52.649236
0
LINE
8
Layer 1
10
32.228081
20
52.649236
11
30.613750
21
52.143793
0
LINE
8
Layer 1
10
30.613750
20
52.143793
11
29.113400
21
51.343500
0
LINE
8
Layer 1
10
29.113400
20
51.343500
11
28.853600
21
51.119700
0
LINE
8
Layer 1
10
28.853600
20
51.119700
11
27.311823
21
49.158236
0
LINE
8
Layer 1
10
27.311823
20
49.158236
11
26.397488
21
47.157612
0
LINE
8
Layer 1
10
26.397488
20
47.157612
11
25.959608
21
44.753283
0
LINE
8
Layer 1
10
25.959608
20
44.753283
11
25.847200
21
41.580700
0
LINE
8
Layer 1
10
25.847200
20
41.580700
11
25.847200
21
35.031400
0
LINE
8
Layer 1
10
25.847200
20
35.031400
11
25.977128
21
34.387977
0
LINE
8
Layer 1
10
25.977128
20
34.387977
11
26.331475
21
33.862913
0
LINE
8
Layer 1
10
26.331475
20
33.862913
11
26.857084
21
33.509092
0
LINE
8
Layer 1
10
26.857084
20
33.509092
11
27.500800
21
33.379400
0
LINE
8
Layer 1
10
27.500800
20
33.379400
11
31.027900
21
33.379400
0
LINE
8
Layer 1
10
31.027900
20
33.379400
11
31.671631
21
33.509342
0
LINE
8
Layer 1
10
31.671631
20
33.509342
11
32.197275
21
33.863713
0
LINE
8
Layer 1
10
32.197275
20
33.863713
11
32.551656
21
34.389327
0
LINE
8
Layer 1
10
32.551656
20
34.389327
11
32.681600
21
35.033000
0
LINE
8
Layer 1
10
32.681600
20
35.033000
11
32.681600
21
41.287800
0
LINE
8
Layer 1
10
32.681600
20
41.287800
11
33.037972
21
42.930345
0
LINE
8
Layer 1
10
33.037972
20
42.930345
11
33.797098
21
44.112056
0
LINE
8
Layer 1
10
33.797098
20
44.112056
11
34.823503
21
44.828702
0
LINE
8
Layer 1
10
34.823503
20
44.828702
11
35.981713
21
45.076050
0
LINE
8
Layer 1
10
35.981713
20
45.076050
11
37.136251
21
44.849866
0
LINE
8
Layer 1
10
37.136251
20
44.849866
11
38.151645
21
44.145919
0
LINE
8
Layer 1
10
38.151645
20
44.145919
11
38.892420
21
42.959974
0
LINE
8
Layer 1
10
38.892420
20
42.959974
11
39.223100
21
41.287800
0
LINE
8
Layer 1
10
39.223100
20
41.287800
11
39.223100
21
35.033000
0
LINE
8
Layer 1
10
39.223100
20
35.033000
11
39.353044
21
34.389327
0
LINE
8
Layer 1
10
39.353044
20
34.389327
11
39.707425
21
33.863713
0
LINE
8
Layer 1
10
39.707425
20
33.863713
11
40.233069
21
33.509342
0
LINE
8
Layer 1
10
40.233069
20
33.509342
11
40.876800
21
33.379400
0
LINE
8
Layer 1
10
40.876800
20
33.379400
11
44.403600
21
33.379400
0
LINE
8
Layer 1
10
44.403600
20
33.379400
11
45.047331
21
33.509139
0
LINE
8
Layer 1
10
45.047331
20
33.509139
11
45.572975
21
33.863062
0
LINE
8
Layer 1
10
45.572975
20
33.863062
11
45.927356
21
34.388230
0
LINE
8
Layer 1
10
45.927356
20
34.388230
11
46.057300
21
35.031700
0
LINE
8
Layer 1
10
46.057300
20
35.031700
11
46.057300
21
41.580700
0
LINE
8
Layer 1
10
46.057300
20
41.580700
11
46.378407
21
43.090173
0
LINE
8
Layer 1
10
46.378407
20
43.090173
11
47.106845
21
44.168369
0
LINE
8
Layer 1
10
47.106845
20
44.168369
11
48.109889
21
44.815286
0
LINE
8
Layer 1
10
48.109889
20
44.815286
11
49.254812
21
45.030925
0
LINE
8
Layer 1
10
49.254812
20
45.030925
11
50.408891
21
44.815286
0
LINE
8
Layer 1
10
50.408891
20
44.815286
11
51.439398
21
44.168369
0
LINE
8
Layer 1
10
51.439398
20
44.168369
11
52.213610
21
43.090173
0
LINE
8
Layer 1
10
52.213610
20
43.090173
11
52.598800
21
41.580700
0
LINE
8
Layer 1
10
52.598800
20
41.580700
11
52.598800
21
35.033000
0
LINE
8
Layer 1
10
52.598800
20
35.033000
11
52.728744
21
34.389327
0
LINE
8
Layer 1
10
52.728744
20
34.389327
11
53.083125
21
33.863713
0
LINE
8
Layer 1
10
53.083125
20
33.863713
11
53.608769
21
33.509342
0
LINE
8
Layer 1
10
53.608769
20
33.509342
11
54.252500
21
33.379400
0
LINE
8
Layer 1
10
54.252500
20
33.379400
11
57.779600
21
33.379400
0
LINE
8
Layer 1
10
57.779600
20
33.379400
11
58.423331
21
33.509342
0
LINE
8
Layer 1
10
58.423331
20
33.509342
11
58.948975
21
33.863713
0
LINE
8
Layer 1
10
58.948975
20
33.863713
11
59.303356
21
34.389327
0
LINE
8
Layer 1
10
59.303356
20
34.389327
11
59.433300
21
35.033000
0
LINE
8
Layer 1
10
59.433300
20
35.033000
11
59.433300
21
35.033000
 0 
ENDSEC
 0 
EOF