<svg width="1024" height="1024" viewBox="0 0 1024 1024" fill="none" xmlns="http://www.w3.org/2000/svg">
<path fill-rule="evenodd" clip-rule="evenodd" d="M511.048 1024C220.196 1024 130.225 866.166 181.719 533.021C184.098 517.625 197.467 506.322 213.047 506.322H809.049C824.628 506.322 837.997 517.625 840.377 533.021C891.87 866.166 801.899 1024 511.048 1024ZM511.048 891.747C362.682 888.171 288.73 830.477 297.193 667.459C298.044 651.066 311.928 638.576 328.343 638.576H693.941C710.276 638.576 724.107 650.934 725.165 667.236C735.42 825.146 675.271 888.176 511.048 891.747Z" fill="white"/>
<path d="M836.825 346.072V219.368C836.825 121.094 814.153 62.0259 765.03 32.3238C691.574 -12.0914 598.039 0.642487 534.7 35.6117C522.906 42.123 508.396 42.0926 496.634 35.5236C430.13 -1.6198 323.828 -18.9506 250.097 30.4436C248.264 31.6715 246.568 33.1541 245.071 34.7749C195.899 88.0141 186.894 124.461 186.894 219.368V346.101C186.894 363.774 201.22 378.072 218.894 378.072H287.147C304.82 378.072 319.147 363.745 319.147 346.072V225.036C324.815 128.455 441.58 126.127 445.732 225.036V346.072C445.732 363.745 460.059 378.072 477.732 378.072H545.986C563.659 378.072 577.986 363.769 577.986 346.096V219.368C581.764 130.345 697.014 130.345 704.571 219.368V346.072C704.571 363.745 718.898 378.072 736.571 378.072H804.825C822.498 378.072 836.825 363.745 836.825 346.072Z" fill="white"/>
</svg>
