999
"DXF R12 Output" (www.mydxf.blogspot.com)
 0 
SECTION
 2 
HEADER
 9 
$ACADVER
 1 
AC1009
 9 
$EXTMIN
 10 
 0 
 20 
 0 
 9 
$EXTMAX
 10 
 8.5 
 20 
 11 
 0 
ENDSEC
 0 
SECTION
 2 
ENTITIES
0
LINE
8
Layer 1
10
135.215000
20
0.000008
11
128.155712
21
0.122493
0
LINE
8
Layer 1
10
128.155712
20
0.122493
11
121.404971
21
0.490514
0
LINE
8
Layer 1
10
121.404971
20
0.490514
11
114.959899
21
1.104917
0
LINE
8
Layer 1
10
114.959899
20
1.104917
11
108.817619
21
1.966549
0
LINE
8
Layer 1
10
108.817619
20
1.966549
11
102.975250
21
3.076257
0
LINE
8
Layer 1
10
102.975250
20
3.076257
11
97.429915
21
4.434886
0
LINE
8
Layer 1
10
97.429915
20
4.434886
11
92.178735
21
6.043286
0
LINE
8
Layer 1
10
92.178735
20
6.043286
11
87.218831
21
7.902300
0
LINE
8
Layer 1
10
87.218831
20
7.902300
11
82.547325
21
10.012778
0
LINE
8
Layer 1
10
82.547325
20
10.012778
11
78.161339
21
12.375565
0
LINE
8
Layer 1
10
78.161339
20
12.375565
11
74.057993
21
14.991508
0
LINE
8
Layer 1
10
74.057993
20
14.991508
11
70.234409
21
17.861455
0
LINE
8
Layer 1
10
70.234409
20
17.861455
11
66.687709
21
20.986251
0
LINE
8
Layer 1
10
66.687709
20
20.986251
11
63.415014
21
24.366743
0
LINE
8
Layer 1
10
63.415014
20
24.366743
11
60.413446
21
28.003778
0
LINE
8
Layer 1
10
60.413446
20
28.003778
11
57.680125
21
31.898204
0
LINE
8
Layer 1
10
57.680125
20
31.898204
11
55.212174
21
36.050866
0
LINE
8
Layer 1
10
55.212174
20
36.050866
11
53.006713
21
40.462612
0
LINE
8
Layer 1
10
53.006713
20
40.462612
11
51.060865
21
45.134288
0
LINE
8
Layer 1
10
51.060865
20
45.134288
11
49.371750
21
50.066741
0
LINE
8
Layer 1
10
49.371750
20
50.066741
11
47.936490
21
55.260817
0
LINE
8
Layer 1
10
47.936490
20
55.260817
11
46.752207
21
60.717365
0
LINE
8
Layer 1
10
46.752207
20
60.717365
11
45.816022
21
66.437229
0
LINE
8
Layer 1
10
45.816022
20
66.437229
11
45.125056
21
72.421257
0
LINE
8
Layer 1
10
45.125056
20
72.421257
11
44.676431
21
78.670297
0
LINE
8
Layer 1
10
44.676431
20
78.670297
11
44.467269
21
85.185193
0
LINE
8
Layer 1
10
44.467269
20
85.185193
11
44.494690
21
91.966794
0
LINE
8
Layer 1
10
44.494690
20
91.966794
11
44.755816
21
99.015946
0
LINE
8
Layer 1
10
44.755816
20
99.015946
11
45.247768
21
106.333496
0
LINE
8
Layer 1
10
45.247768
20
106.333496
11
45.967669
21
113.920291
0
LINE
8
Layer 1
10
45.967669
20
113.920291
11
46.912639
21
121.777176
0
LINE
8
Layer 1
10
46.912639
20
121.777176
11
48.079800
21
129.905000
0
LINE
8
Layer 1
10
48.079800
20
129.905000
11
48.447591
21
131.377928
0
LINE
8
Layer 1
10
48.447591
20
131.377928
11
49.060769
21
132.727047
0
LINE
8
Layer 1
10
49.060769
20
132.727047
11
49.892112
21
133.929986
0
LINE
8
Layer 1
10
49.892112
20
133.929986
11
50.914400
21
134.964375
0
LINE
8
Layer 1
10
50.914400
20
134.964375
11
52.100413
21
135.807842
0
LINE
8
Layer 1
10
52.100413
20
135.807842
11
53.422931
21
136.438016
0
LINE
8
Layer 1
10
53.422931
20
136.438016
11
54.854734
21
136.832525
0
LINE
8
Layer 1
10
54.854734
20
136.832525
11
56.368600
21
136.969000
0
LINE
8
Layer 1
10
56.368600
20
136.969000
11
214.061000
21
136.969000
0
LINE
8
Layer 1
10
214.061000
20
136.969000
11
215.574791
21
136.832525
0
LINE
8
Layer 1
10
215.574791
20
136.832525
11
217.006516
21
136.438016
0
LINE
8
Layer 1
10
217.006516
20
136.438016
11
218.328951
21
135.807842
0
LINE
8
Layer 1
10
218.328951
20
135.807842
11
219.514875
21
134.964375
0
LINE
8
Layer 1
10
219.514875
20
134.964375
11
220.537064
21
133.929986
0
LINE
8
Layer 1
10
220.537064
20
133.929986
11
221.368297
21
132.727047
0
LINE
8
Layer 1
10
221.368297
20
132.727047
11
221.981350
21
131.377928
0
LINE
8
Layer 1
10
221.981350
20
131.377928
11
222.349000
21
129.905000
0
LINE
8
Layer 1
10
222.349000
20
129.905000
11
223.516206
21
121.777176
0
LINE
8
Layer 1
10
223.516206
20
121.777176
11
224.461217
21
113.920291
0
LINE
8
Layer 1
10
224.461217
20
113.920291
11
225.181155
21
106.333496
0
LINE
8
Layer 1
10
225.181155
20
106.333496
11
225.673143
21
99.015946
0
LINE
8
Layer 1
10
225.673143
20
99.015946
11
225.934300
21
91.966794
0
LINE
8
Layer 1
10
225.934300
20
91.966794
11
225.961751
21
85.185193
0
LINE
8
Layer 1
10
225.961751
20
85.185193
11
225.752615
21
78.670297
0
LINE
8
Layer 1
10
225.752615
20
78.670297
11
225.304016
21
72.421257
0
LINE
8
Layer 1
10
225.304016
20
72.421257
11
224.613074
21
66.437229
0
LINE
8
Layer 1
10
224.613074
20
66.437229
11
223.676911
21
60.717365
0
LINE
8
Layer 1
10
223.676911
20
60.717365
11
222.492650
21
55.260817
0
LINE
8
Layer 1
10
222.492650
20
55.260817
11
221.057412
21
50.066741
0
LINE
8
Layer 1
10
221.057412
20
50.066741
11
219.368319
21
45.134288
0
LINE
8
Layer 1
10
219.368319
20
45.134288
11
217.422492
21
40.462612
0
LINE
8
Layer 1
10
217.422492
20
40.462612
11
215.217053
21
36.050866
0
LINE
8
Layer 1
10
215.217053
20
36.050866
11
212.749125
21
31.898204
0
LINE
8
Layer 1
10
212.749125
20
31.898204
11
210.015828
21
28.003778
0
LINE
8
Layer 1
10
210.015828
20
28.003778
11
207.014285
21
24.366743
0
LINE
8
Layer 1
10
207.014285
20
24.366743
11
203.741618
21
20.986251
0
LINE
8
Layer 1
10
203.741618
20
20.986251
11
200.194947
21
17.861455
0
LINE
8
Layer 1
10
200.194947
20
17.861455
11
196.371396
21
14.991508
0
LINE
8
Layer 1
10
196.371396
20
14.991508
11
192.268085
21
12.375565
0
LINE
8
Layer 1
10
192.268085
20
12.375565
11
187.882136
21
10.012778
0
LINE
8
Layer 1
10
187.882136
20
10.012778
11
183.210672
21
7.902300
0
LINE
8
Layer 1
10
183.210672
20
7.902300
11
178.250814
21
6.043286
0
LINE
8
Layer 1
10
178.250814
20
6.043286
11
172.999683
21
4.434886
0
LINE
8
Layer 1
10
172.999683
20
4.434886
11
167.454402
21
3.076257
0
LINE
8
Layer 1
10
167.454402
20
3.076257
11
161.612092
21
1.966549
0
LINE
8
Layer 1
10
161.612092
20
1.966549
11
155.469875
21
1.104917
0
LINE
8
Layer 1
10
155.469875
20
1.104917
11
149.024873
21
0.490514
0
LINE
8
Layer 1
10
149.024873
20
0.490514
11
142.274207
21
0.122493
0
LINE
8
Layer 1
10
142.274207
20
0.122493
11
135.215000
21
0.000008
0
LINE
8
Layer 1
10
135.215000
20
0.000008
11
135.215000
21
0.000008
0
LINE
8
Layer 1
10
135.215000
20
34.991900
11
128.085841
21
35.340416
0
LINE
8
Layer 1
10
128.085841
20
35.340416
11
121.421244
21
36.044371
0
LINE
8
Layer 1
10
121.421244
20
36.044371
11
115.224308
21
37.123611
0
LINE
8
Layer 1
10
115.224308
20
37.123611
11
109.498136
21
38.597981
0
LINE
8
Layer 1
10
109.498136
20
38.597981
11
104.245827
21
40.487329
0
LINE
8
Layer 1
10
104.245827
20
40.487329
11
101.798340
21
41.593822
0
LINE
8
Layer 1
10
101.798340
20
41.593822
11
99.470482
21
42.811501
0
LINE
8
Layer 1
10
99.470482
20
42.811501
11
97.262640
21
44.142847
0
LINE
8
Layer 1
10
97.262640
20
44.142847
11
95.175202
21
45.590342
0
LINE
8
Layer 1
10
95.175202
20
45.590342
11
93.208555
21
47.156466
0
LINE
8
Layer 1
10
93.208555
20
47.156466
11
91.363088
21
48.843700
0
LINE
8
Layer 1
10
91.363088
20
48.843700
11
89.639186
21
50.654524
0
LINE
8
Layer 1
10
89.639186
20
50.654524
11
88.037239
21
52.591420
0
LINE
8
Layer 1
10
88.037239
20
52.591420
11
86.557633
21
54.656868
0
LINE
8
Layer 1
10
86.557633
20
54.656868
11
85.200757
21
56.853349
0
LINE
8
Layer 1
10
85.200757
20
56.853349
11
83.966997
21
59.183344
0
LINE
8
Layer 1
10
83.966997
20
59.183344
11
82.856742
21
61.649333
0
LINE
8
Layer 1
10
82.856742
20
61.649333
11
81.870379
21
64.253798
0
LINE
8
Layer 1
10
81.870379
20
64.253798
11
81.008295
21
66.999219
0
LINE
8
Layer 1
10
81.008295
20
66.999219
11
80.270879
21
69.888076
0
LINE
8
Layer 1
10
80.270879
20
69.888076
11
79.658517
21
72.922852
0
LINE
8
Layer 1
10
79.658517
20
72.922852
11
78.810508
21
79.440079
0
LINE
8
Layer 1
10
78.810508
20
79.440079
11
78.467369
21
86.570746
0
LINE
8
Layer 1
10
78.467369
20
86.570746
11
78.632200
21
94.334700
0
LINE
8
Layer 1
10
78.632200
20
94.334700
11
78.872858
21
95.908360
0
LINE
8
Layer 1
10
78.872858
20
95.908360
11
79.404225
21
97.358608
0
LINE
8
Layer 1
10
79.404225
20
97.358608
11
80.193742
21
98.658812
0
LINE
8
Layer 1
10
80.193742
20
98.658812
11
81.208850
21
99.782338
0
LINE
8
Layer 1
10
81.208850
20
99.782338
11
82.416989
21
100.702553
0
LINE
8
Layer 1
10
82.416989
20
100.702553
11
83.785600
21
101.392823
0
LINE
8
Layer 1
10
83.785600
20
101.392823
11
85.282123
21
101.826517
0
LINE
8
Layer 1
10
85.282123
20
101.826517
11
86.874000
21
101.977000
0
LINE
8
Layer 1
10
86.874000
20
101.977000
11
183.605000
21
101.977000
0
LINE
8
Layer 1
10
183.605000
20
101.977000
11
185.189367
21
101.828064
0
LINE
8
Layer 1
10
185.189367
20
101.828064
11
186.679750
21
101.398653
0
LINE
8
Layer 1
10
186.679750
20
101.398653
11
188.044320
21
100.714866
0
LINE
8
Layer 1
10
188.044320
20
100.714866
11
189.251250
21
99.802800
0
LINE
8
Layer 1
10
189.251250
20
99.802800
11
190.268711
21
98.688553
0
LINE
8
Layer 1
10
190.268711
20
98.688553
11
191.064875
21
97.398222
0
LINE
8
Layer 1
10
191.064875
20
97.398222
11
191.607914
21
95.957905
0
LINE
8
Layer 1
10
191.607914
20
95.957905
11
191.866000
21
94.393700
0
LINE
8
Layer 1
10
191.866000
20
94.393700
11
192.154392
21
86.851789
0
LINE
8
Layer 1
10
192.154392
20
86.851789
11
191.993121
21
79.884515
0
LINE
8
Layer 1
10
191.993121
20
79.884515
11
191.369141
21
73.478150
0
LINE
8
Layer 1
10
191.369141
20
73.478150
11
190.269406
21
67.618967
0
LINE
8
Layer 1
10
190.269406
20
67.618967
11
189.537054
21
64.890279
0
LINE
8
Layer 1
10
189.537054
20
64.890279
11
188.680871
21
62.293237
0
LINE
8
Layer 1
10
188.680871
20
62.293237
11
187.699226
21
59.826128
0
LINE
8
Layer 1
10
187.699226
20
59.826128
11
186.590488
21
57.487233
0
LINE
8
Layer 1
10
186.590488
20
57.487233
11
185.353028
21
55.274838
0
LINE
8
Layer 1
10
185.353028
20
55.274838
11
183.985213
21
53.187226
0
LINE
8
Layer 1
10
183.985213
20
53.187226
11
182.485414
21
51.222681
0
LINE
8
Layer 1
10
182.485414
20
51.222681
11
180.852000
21
49.379487
0
LINE
8
Layer 1
10
180.852000
20
49.379487
11
179.083340
21
47.655929
0
LINE
8
Layer 1
10
179.083340
20
47.655929
11
177.177802
21
46.050290
0
LINE
8
Layer 1
10
177.177802
20
46.050290
11
175.133757
21
44.560855
0
LINE
8
Layer 1
10
175.133757
20
44.560855
11
172.949574
21
43.185906
0
LINE
8
Layer 1
10
172.949574
20
43.185906
11
170.623622
21
41.923729
0
LINE
8
Layer 1
10
170.623622
20
41.923729
11
168.154270
21
40.772607
0
LINE
8
Layer 1
10
168.154270
20
40.772607
11
165.539888
21
39.730824
0
LINE
8
Layer 1
10
165.539888
20
39.730824
11
162.778844
21
38.796664
0
LINE
8
Layer 1
10
162.778844
20
38.796664
11
156.810250
21
37.244350
0
LINE
8
Layer 1
10
156.810250
20
37.244350
11
150.235441
21
36.101937
0
LINE
8
Layer 1
10
150.235441
20
36.101937
11
143.041374
21
35.355696
0
LINE
8
Layer 1
10
143.041374
20
35.355696
11
135.215000
21
34.991900
0
LINE
8
Layer 1
10
135.215000
20
34.991900
11
135.215000
21
34.991900
0
LINE
8
Layer 1
10
221.410000
20
179.368000
11
221.410000
21
212.892000
0
LINE
8
Layer 1
10
221.410000
20
212.892000
11
221.126846
21
222.161557
0
LINE
8
Layer 1
10
221.126846
20
222.161557
11
220.770708
21
226.441164
0
LINE
8
Layer 1
10
220.770708
20
226.441164
11
220.269578
21
230.489078
0
LINE
8
Layer 1
10
220.269578
20
230.489078
11
219.621993
21
234.309115
0
LINE
8
Layer 1
10
219.621993
20
234.309115
11
218.826490
21
237.905092
0
LINE
8
Layer 1
10
218.826490
20
237.905092
11
217.881605
21
241.280823
0
LINE
8
Layer 1
10
217.881605
20
241.280823
11
216.785875
21
244.440125
0
LINE
8
Layer 1
10
216.785875
20
244.440125
11
215.537836
21
247.386814
0
LINE
8
Layer 1
10
215.537836
20
247.386814
11
214.136025
21
250.124705
0
LINE
8
Layer 1
10
214.136025
20
250.124705
11
212.578979
21
252.657615
0
LINE
8
Layer 1
10
212.578979
20
252.657615
11
210.865234
21
254.989359
0
LINE
8
Layer 1
10
210.865234
20
254.989359
11
208.993327
21
257.123754
0
LINE
8
Layer 1
10
208.993327
20
257.123754
11
206.961795
21
259.064615
0
LINE
8
Layer 1
10
206.961795
20
259.064615
11
204.769174
21
260.815759
0
LINE
8
Layer 1
10
204.769174
20
260.815759
11
202.414000
21
262.381000
0
LINE
8
Layer 1
10
202.414000
20
262.381000
11
198.710924
21
264.409380
0
LINE
8
Layer 1
10
198.710924
20
264.409380
11
194.902811
21
266.096916
0
LINE
8
Layer 1
10
194.902811
20
266.096916
11
191.009148
21
267.457138
0
LINE
8
Layer 1
10
191.009148
20
267.457138
11
187.049422
21
268.503578
0
LINE
8
Layer 1
10
187.049422
20
268.503578
11
183.043120
21
269.249766
0
LINE
8
Layer 1
10
183.043120
20
269.249766
11
179.009729
21
269.709232
0
LINE
8
Layer 1
10
179.009729
20
269.709232
11
174.968735
21
269.895509
0
LINE
8
Layer 1
10
174.968735
20
269.895509
11
170.939625
21
269.822125
0
LINE
8
Layer 1
10
170.939625
20
269.822125
11
166.941886
21
269.502613
0
LINE
8
Layer 1
10
166.941886
20
269.502613
11
162.995006
21
268.950502
0
LINE
8
Layer 1
10
162.995006
20
268.950502
11
159.118470
21
268.179324
0
LINE
8
Layer 1
10
159.118470
20
268.179324
11
155.331766
21
267.202609
0
LINE
8
Layer 1
10
155.331766
20
267.202609
11
151.654380
21
266.033889
0
LINE
8
Layer 1
10
151.654380
20
266.033889
11
148.105799
21
264.686693
0
LINE
8
Layer 1
10
148.105799
20
264.686693
11
144.705510
21
263.174553
0
LINE
8
Layer 1
10
144.705510
20
263.174553
11
141.473000
21
261.511000
0
LINE
8
Layer 1
10
141.473000
20
261.511000
11
140.271791
21
260.946014
0
LINE
8
Layer 1
10
140.271791
20
260.946014
11
139.020203
21
260.543297
0
LINE
8
Layer 1
10
139.020203
20
260.543297
11
137.735170
21
260.302838
0
LINE
8
Layer 1
10
137.735170
20
260.302838
11
136.433625
21
260.224625
0
LINE
8
Layer 1
10
136.433625
20
260.224625
11
135.132502
21
260.308646
0
LINE
8
Layer 1
10
135.132502
20
260.308646
11
133.848734
21
260.554891
0
LINE
8
Layer 1
10
133.848734
20
260.554891
11
132.599256
21
260.963346
0
LINE
8
Layer 1
10
132.599256
20
260.963346
11
131.401000
21
261.534000
0
LINE
8
Layer 1
10
131.401000
20
261.534000
11
127.983031
21
263.312279
0
LINE
8
Layer 1
10
127.983031
20
263.312279
11
124.346322
21
264.949494
0
LINE
8
Layer 1
10
124.346322
20
264.949494
11
120.518921
21
266.427467
0
LINE
8
Layer 1
10
120.518921
20
266.427467
11
116.528875
21
267.728016
0
LINE
8
Layer 1
10
116.528875
20
267.728016
11
112.404232
21
268.832961
0
LINE
8
Layer 1
10
112.404232
20
268.832961
11
108.173041
21
269.724123
0
LINE
8
Layer 1
10
108.173041
20
269.724123
11
103.863347
21
270.383321
0
LINE
8
Layer 1
10
103.863347
20
270.383321
11
99.503200
21
270.792375
0
LINE
8
Layer 1
10
99.503200
20
270.792375
11
95.120646
21
270.933105
0
LINE
8
Layer 1
10
95.120646
20
270.933105
11
90.743734
21
270.787330
0
LINE
8
Layer 1
10
90.743734
20
270.787330
11
86.400511
21
270.336871
0
LINE
8
Layer 1
10
86.400511
20
270.336871
11
82.119025
21
269.563547
0
LINE
8
Layer 1
10
82.119025
20
269.563547
11
77.927323
21
268.449178
0
LINE
8
Layer 1
10
77.927323
20
268.449178
11
73.853453
21
266.975584
0
LINE
8
Layer 1
10
73.853453
20
266.975584
11
69.925463
21
265.124585
0
LINE
8
Layer 1
10
69.925463
20
265.124585
11
66.171400
21
262.878000
0
LINE
8
Layer 1
10
66.171400
20
262.878000
11
64.841600
21
261.732000
0
LINE
8
Layer 1
10
64.841600
20
261.732000
11
60.444878
21
256.619127
0
LINE
8
Layer 1
10
60.444878
20
256.619127
11
58.589948
21
254.145973
0
LINE
8
Layer 1
10
58.589948
20
254.145973
11
56.947870
21
251.689453
0
LINE
8
Layer 1
10
56.947870
20
251.689453
11
55.506565
21
249.220400
0
LINE
8
Layer 1
10
55.506565
20
249.220400
11
54.253956
21
246.709646
0
LINE
8
Layer 1
10
54.253956
20
246.709646
11
53.177964
21
244.128027
0
LINE
8
Layer 1
10
53.177964
20
244.128027
11
52.266512
21
241.446375
0
LINE
8
Layer 1
10
52.266512
20
241.446375
11
51.507523
21
238.635524
0
LINE
8
Layer 1
10
51.507523
20
238.635524
11
50.888917
21
235.666307
0
LINE
8
Layer 1
10
50.888917
20
235.666307
11
50.024548
21
229.136109
0
LINE
8
Layer 1
10
50.024548
20
229.136109
11
49.576783
21
221.622451
0
LINE
8
Layer 1
10
49.576783
20
221.622451
11
49.449000
21
212.892000
0
LINE
8
Layer 1
10
49.449000
20
212.892000
11
49.449000
21
179.361000
0
LINE
8
Layer 1
10
49.449000
20
179.361000
11
49.621002
21
177.655004
0
LINE
8
Layer 1
10
49.621002
20
177.655004
11
50.114316
21
176.066594
0
LINE
8
Layer 1
10
50.114316
20
176.066594
11
50.894903
21
174.629637
0
LINE
8
Layer 1
10
50.894903
20
174.629637
11
51.928725
21
173.378000
0
LINE
8
Layer 1
10
51.928725
20
173.378000
11
53.181744
21
172.345551
0
LINE
8
Layer 1
10
53.181744
20
172.345551
11
54.619922
21
171.566156
0
LINE
8
Layer 1
10
54.619922
20
171.566156
11
56.209220
21
171.073684
0
LINE
8
Layer 1
10
56.209220
20
171.073684
11
57.915600
21
170.902000
0
LINE
8
Layer 1
10
57.915600
20
170.902000
11
75.974200
21
170.902000
0
LINE
8
Layer 1
10
75.974200
20
170.902000
11
77.680527
21
171.073984
0
LINE
8
Layer 1
10
77.680527
20
171.073984
11
79.269809
21
171.567250
0
LINE
8
Layer 1
10
79.269809
20
171.567250
11
80.708000
21
172.347766
0
LINE
8
Layer 1
10
80.708000
20
172.347766
11
81.961050
21
173.381500
0
LINE
8
Layer 1
10
81.961050
20
173.381500
11
82.994913
21
174.634422
0
LINE
8
Layer 1
10
82.994913
20
174.634422
11
83.775541
21
176.072500
0
LINE
8
Layer 1
10
83.775541
20
176.072500
11
84.268886
21
177.661703
0
LINE
8
Layer 1
10
84.268886
20
177.661703
11
84.440900
21
179.368000
0
LINE
8
Layer 1
10
84.440900
20
179.368000
11
84.440900
21
211.392000
0
LINE
8
Layer 1
10
84.440900
20
211.392000
11
84.665799
21
213.714571
0
LINE
8
Layer 1
10
84.665799
20
213.714571
11
85.052095
21
215.890682
0
LINE
8
Layer 1
10
85.052095
20
215.890682
11
85.588951
21
217.919995
0
LINE
8
Layer 1
10
85.588951
20
217.919995
11
86.265528
21
219.802172
0
LINE
8
Layer 1
10
86.265528
20
219.802172
11
87.070987
21
221.536874
0
LINE
8
Layer 1
10
87.070987
20
221.536874
11
87.994491
21
223.123764
0
LINE
8
Layer 1
10
87.994491
20
223.123764
11
89.025200
21
224.562502
0
LINE
8
Layer 1
10
89.025200
20
224.562502
11
90.152278
21
225.852750
0
LINE
8
Layer 1
10
90.152278
20
225.852750
11
91.364885
21
226.994170
0
LINE
8
Layer 1
10
91.364885
20
226.994170
11
92.652184
21
227.986424
0
LINE
8
Layer 1
10
92.652184
20
227.986424
11
94.003336
21
228.829173
0
LINE
8
Layer 1
10
94.003336
20
228.829173
11
95.407502
21
229.522078
0
LINE
8
Layer 1
10
95.407502
20
229.522078
11
96.853845
21
230.064802
0
LINE
8
Layer 1
10
96.853845
20
230.064802
11
98.331526
21
230.457006
0
LINE
8
Layer 1
10
98.331526
20
230.457006
11
99.829707
21
230.698351
0
LINE
8
Layer 1
10
99.829707
20
230.698351
11
101.337550
21
230.788500
0
LINE
8
Layer 1
10
101.337550
20
230.788500
11
102.844216
21
230.727114
0
LINE
8
Layer 1
10
102.844216
20
230.727114
11
104.338868
21
230.513854
0
LINE
8
Layer 1
10
104.338868
20
230.513854
11
105.810666
21
230.148382
0
LINE
8
Layer 1
10
105.810666
20
230.148382
11
107.248773
21
229.630359
0
LINE
8
Layer 1
10
107.248773
20
229.630359
11
108.642350
21
228.959448
0
LINE
8
Layer 1
10
108.642350
20
228.959448
11
109.980560
21
228.135311
0
LINE
8
Layer 1
10
109.980560
20
228.135311
11
111.252563
21
227.157607
0
LINE
8
Layer 1
10
111.252563
20
227.157607
11
112.447522
21
226.026000
0
LINE
8
Layer 1
10
112.447522
20
226.026000
11
113.554598
21
224.740151
0
LINE
8
Layer 1
10
113.554598
20
224.740151
11
114.562953
21
223.299721
0
LINE
8
Layer 1
10
114.562953
20
223.299721
11
115.461749
21
221.704372
0
LINE
8
Layer 1
10
115.461749
20
221.704372
11
116.240147
21
219.953766
0
LINE
8
Layer 1
10
116.240147
20
219.953766
11
116.887310
21
218.047564
0
LINE
8
Layer 1
10
116.887310
20
218.047564
11
117.392398
21
215.985428
0
LINE
8
Layer 1
10
117.392398
20
215.985428
11
117.744574
21
213.767019
0
LINE
8
Layer 1
10
117.744574
20
213.767019
11
117.933000
21
211.392000
0
LINE
8
Layer 1
10
117.933000
20
211.392000
11
117.933000
21
179.368000
0
LINE
8
Layer 1
10
117.933000
20
179.368000
11
118.105027
21
177.661703
0
LINE
8
Layer 1
10
118.105027
20
177.661703
11
118.598406
21
176.072500
0
LINE
8
Layer 1
10
118.598406
20
176.072500
11
119.379082
21
174.634422
0
LINE
8
Layer 1
10
119.379082
20
174.634422
11
120.413000
21
173.381500
0
LINE
8
Layer 1
10
120.413000
20
173.381500
11
121.666105
21
172.347766
0
LINE
8
Layer 1
10
121.666105
20
172.347766
11
123.104344
21
171.567250
0
LINE
8
Layer 1
10
123.104344
20
171.567250
11
124.693660
21
171.073984
0
LINE
8
Layer 1
10
124.693660
20
171.073984
11
126.400000
21
170.902000
0
LINE
8
Layer 1
10
126.400000
20
170.902000
11
144.459000
21
170.902000
0
LINE
8
Layer 1
10
144.459000
20
170.902000
11
146.165297
21
171.073727
0
LINE
8
Layer 1
10
146.165297
20
171.073727
11
147.754500
21
171.566312
0
LINE
8
Layer 1
10
147.754500
20
171.566312
11
149.192578
21
172.345867
0
LINE
8
Layer 1
10
149.192578
20
172.345867
11
150.445500
21
173.378500
0
LINE
8
Layer 1
10
150.445500
20
173.378500
11
151.479234
21
174.630320
0
LINE
8
Layer 1
10
151.479234
20
174.630320
11
152.259750
21
176.067437
0
LINE
8
Layer 1
10
152.259750
20
176.067437
11
152.753016
21
177.655961
0
LINE
8
Layer 1
10
152.753016
20
177.655961
11
152.925000
21
179.362000
0
LINE
8
Layer 1
10
152.925000
20
179.362000
11
152.925000
21
212.892000
0
LINE
8
Layer 1
10
152.925000
20
212.892000
11
153.103386
21
215.031182
0
LINE
8
Layer 1
10
153.103386
20
215.031182
11
153.443964
21
217.032352
0
LINE
8
Layer 1
10
153.443964
20
217.032352
11
153.936118
21
218.895510
0
LINE
8
Layer 1
10
153.936118
20
218.895510
11
154.569230
21
220.620656
0
LINE
8
Layer 1
10
154.569230
20
220.620656
11
155.332683
21
222.207791
0
LINE
8
Layer 1
10
155.332683
20
222.207791
11
156.215858
21
223.656914
0
LINE
8
Layer 1
10
156.215858
20
223.656914
11
157.208138
21
224.968025
0
LINE
8
Layer 1
10
157.208138
20
224.968025
11
158.298906
21
226.141125
0
LINE
8
Layer 1
10
158.298906
20
226.141125
11
159.477544
21
227.176213
0
LINE
8
Layer 1
10
159.477544
20
227.176213
11
160.733435
21
228.073289
0
LINE
8
Layer 1
10
160.733435
20
228.073289
11
163.434504
21
229.453406
0
LINE
8
Layer 1
10
163.434504
20
229.453406
11
166.317172
21
230.281477
0
LINE
8
Layer 1
10
166.317172
20
230.281477
11
169.296500
21
230.557500
0
LINE
8
Layer 1
10
169.296500
20
230.557500
11
172.287546
21
230.281477
0
LINE
8
Layer 1
10
172.287546
20
230.281477
11
175.205371
21
229.453406
0
LINE
8
Layer 1
10
175.205371
20
229.453406
11
177.965034
21
228.073289
0
LINE
8
Layer 1
10
177.965034
20
228.073289
11
179.259010
21
227.176213
0
LINE
8
Layer 1
10
179.259010
20
227.176213
11
180.481594
21
226.141125
0
LINE
8
Layer 1
10
180.481594
20
226.141125
11
181.622166
21
224.968025
0
LINE
8
Layer 1
10
181.622166
20
224.968025
11
182.670111
21
223.656914
0
LINE
8
Layer 1
10
182.670111
20
223.656914
11
183.614809
21
222.207791
0
LINE
8
Layer 1
10
183.614809
20
222.207791
11
184.445645
21
220.620656
0
LINE
8
Layer 1
10
184.445645
20
220.620656
11
185.151999
21
218.895510
0
LINE
8
Layer 1
10
185.151999
20
218.895510
11
185.723254
21
217.032352
0
LINE
8
Layer 1
10
185.723254
20
217.032352
11
186.148794
21
215.031182
0
LINE
8
Layer 1
10
186.148794
20
215.031182
11
186.418000
21
212.892000
0
LINE
8
Layer 1
10
186.418000
20
212.892000
11
186.418000
21
179.368000
0
LINE
8
Layer 1
10
186.418000
20
179.368000
11
186.589984
21
177.661703
0
LINE
8
Layer 1
10
186.589984
20
177.661703
11
187.083250
21
176.072500
0
LINE
8
Layer 1
10
187.083250
20
176.072500
11
187.863766
21
174.634422
0
LINE
8
Layer 1
10
187.863766
20
174.634422
11
188.897500
21
173.381500
0
LINE
8
Layer 1
10
188.897500
20
173.381500
11
190.150422
21
172.347766
0
LINE
8
Layer 1
10
190.150422
20
172.347766
11
191.588500
21
171.567250
0
LINE
8
Layer 1
10
191.588500
20
171.567250
11
193.177703
21
171.073984
0
LINE
8
Layer 1
10
193.177703
20
171.073984
11
194.884000
21
170.902000
0
LINE
8
Layer 1
10
194.884000
20
170.902000
11
212.943000
21
170.902000
0
LINE
8
Layer 1
10
212.943000
20
170.902000
11
214.649340
21
171.073984
0
LINE
8
Layer 1
10
214.649340
20
171.073984
11
216.238656
21
171.567250
0
LINE
8
Layer 1
10
216.238656
20
171.567250
11
217.676895
21
172.347766
0
LINE
8
Layer 1
10
217.676895
20
172.347766
11
218.930000
21
173.381500
0
LINE
8
Layer 1
10
218.930000
20
173.381500
11
219.963918
21
174.634422
0
LINE
8
Layer 1
10
219.963918
20
174.634422
11
220.744594
21
176.072500
0
LINE
8
Layer 1
10
220.744594
20
176.072500
11
221.237973
21
177.661703
0
LINE
8
Layer 1
10
221.237973
20
177.661703
11
221.410000
21
179.368000
0
LINE
8
Layer 1
10
221.410000
20
179.368000
11
221.410000
21
179.368000
 0 
ENDSEC
 0 
EOF