<svg width="17" height="24" viewBox="0 0 17 24" fill="none" xmlns="http://www.w3.org/2000/svg">
<path fill-rule="evenodd" clip-rule="evenodd" d="M8.04019 23.9998C1.22334 23.9998 -0.885353 20.3005 0.321538 12.4925C0.377296 12.1316 0.690634 11.8667 1.05579 11.8667H15.0246C15.3897 11.8667 15.7031 12.1316 15.7588 12.4925C16.9657 20.3005 14.857 23.9998 8.04019 23.9998ZM8.04019 20.9001C4.56286 20.8163 2.82961 19.4641 3.02796 15.6433C3.04791 15.2591 3.37331 14.9664 3.75804 14.9664H12.3267C12.7096 14.9664 13.0338 15.256 13.0586 15.6381C13.2989 19.3391 11.8892 20.8164 8.04019 20.9001Z" fill="#0A0A0A"/>
<path d="M15.6756 8.11106V5.14144C15.6756 2.83814 15.1442 1.45373 13.9929 0.757589C12.2713 -0.283392 10.0791 0.0150581 8.59454 0.834649C8.31812 0.987258 7.97804 0.986545 7.70237 0.832584C6.14368 -0.037964 3.65223 -0.444155 1.92416 0.713522C1.8812 0.742301 1.84145 0.777049 1.80636 0.815037C0.653895 2.06283 0.442841 2.91705 0.442841 5.14144V8.11174C0.442841 8.52595 0.778606 8.86106 1.19284 8.86106H2.79252C3.20673 8.86106 3.54252 8.52527 3.54252 8.11106V5.27428C3.67536 3.01066 6.41204 2.9561 6.50936 5.27428V8.11106C6.50936 8.52527 6.84514 8.86106 7.25936 8.86106H8.85906C9.27327 8.86106 9.60906 8.52584 9.60906 8.11163V5.14144C9.69761 3.05496 12.3988 3.05496 12.5759 5.14144V8.11106C12.5759 8.52527 12.9117 8.86106 13.3259 8.86106H14.9256C15.3398 8.86106 15.6756 8.52527 15.6756 8.11106Z" fill="#0A0A0A"/>
</svg>
