<svg width="24" height="24" viewBox="0 0 24 24" fill="none" xmlns="http://www.w3.org/2000/svg">
<path fill-rule="evenodd" clip-rule="evenodd" d="M12.0402 23.9998C5.22334 23.9998 3.11465 20.3005 4.32154 12.4925C4.3773 12.1316 4.69063 11.8667 5.05579 11.8667H19.0246C19.3897 11.8667 19.7031 12.1316 19.7588 12.4925C20.9657 20.3005 18.857 23.9998 12.0402 23.9998ZM12.0402 20.9001C8.56286 20.8163 6.82961 19.4641 7.02796 15.6433C7.04791 15.2591 7.37331 14.9664 7.75804 14.9664H16.3267C16.7096 14.9664 17.0338 15.256 17.0586 15.6381C17.2989 19.3391 15.8892 20.8164 12.0402 20.9001Z" fill="#0A0A0A"/>
<path d="M19.6756 8.11106V5.14144C19.6756 2.83814 19.1442 1.45373 17.9929 0.757589C16.2713 -0.283392 14.0791 0.0150581 12.5945 0.834649C12.3181 0.987258 11.978 0.986545 11.7024 0.832584C10.1437 -0.0379641 7.65223 -0.444155 5.92416 0.713522C5.8812 0.742301 5.84145 0.777049 5.80636 0.815037C4.6539 2.06283 4.44284 2.91705 4.44284 5.14144V8.11174C4.44284 8.52595 4.77861 8.86106 5.19284 8.86106H6.79252C7.20673 8.86106 7.54252 8.52527 7.54252 8.11106V5.27428C7.67536 3.01066 10.412 2.9561 10.5094 5.27428V8.11106C10.5094 8.52527 10.8451 8.86106 11.2594 8.86106H12.8591C13.2733 8.86106 13.6091 8.52584 13.6091 8.11163V5.14144C13.6976 3.05496 16.3988 3.05496 16.5759 5.14144V8.11106C16.5759 8.52527 16.9117 8.86106 17.3259 8.86106H18.9256C19.3398 8.86106 19.6756 8.52527 19.6756 8.11106Z" fill="#0A0A0A"/>
</svg>
