<?xml version="1.0" standalone="no"?>
<!DOCTYPE svg PUBLIC "-//W3C//DTD SVG 20010904//EN"
 "http://www.w3.org/TR/2001/REC-SVG-20010904/DTD/svg10.dtd">
<svg version="1.0" xmlns="http://www.w3.org/2000/svg"
 width="700.000000pt" height="700.000000pt" viewBox="0 0 700.000000 700.000000"
 preserveAspectRatio="xMidYMid meet">
<metadata>
Created by potrace 1.14, written by Peter Selinger 2001-2017
</metadata>
<g transform="translate(0.000000,700.000000) scale(0.100000,-0.100000)"
fill="#000000" stroke="none">
<path d="M2270 6989 c-271 -41 -497 -134 -606 -250 -201 -214 -310 -438 -350
-719 -22 -160 -27 -300 -28 -885 0 -581 -1 -572 52 -642 13 -18 45 -42 70 -55
45 -21 58 -22 317 -23 149 -1 286 3 305 8 50 13 105 56 132 102 26 45 25 20
31 695 4 366 5 378 69 505 37 75 126 163 201 198 201 96 436 5 531 -205 59
-129 59 -131 61 -653 2 -532 1 -519 69 -587 59 -59 79 -62 391 -62 265 0 282
1 320 21 51 27 89 67 109 116 13 33 16 105 16 510 1 501 5 560 50 653 77 158
230 249 402 238 189 -12 350 -157 400 -362 7 -31 12 -208 13 -527 2 -528 1
-520 64 -584 60 -61 78 -64 376 -66 237 -1 276 1 319 16 59 22 102 60 127 114
18 38 19 70 15 645 -2 333 -6 623 -9 645 -4 22 -9 60 -12 85 -13 95 -17 118
-40 210 -32 130 -79 257 -121 325 -19 32 -34 59 -34 62 0 7 -108 136 -132 159
-86 77 -298 198 -386 219 -9 3 -48 14 -87 25 -146 43 -427 66 -565 45 -19 -3
-57 -7 -85 -11 -27 -3 -108 -21 -180 -40 -140 -37 -140 -37 -170 -49 -11 -5
-40 -16 -65 -26 -25 -9 -81 -35 -126 -57 -160 -79 -192 -78 -381 11 -194 91
-408 160 -568 183 -27 3 -59 9 -70 11 -38 9 -370 10 -425 2z"/>
<path d="M1397 3527 c-84 -26 -138 -100 -152 -207 -3 -30 -8 -64 -10 -75 -8
-57 -35 -268 -40 -320 -3 -33 -8 -82 -10 -110 -3 -27 -7 -72 -10 -99 -7 -74
-18 -360 -18 -446 1 -105 13 -392 17 -399 2 -3 7 -37 10 -76 29 -301 123 -627
248 -855 147 -270 377 -500 646 -647 273 -150 629 -244 1067 -280 141 -12 657
-8 790 6 367 38 666 114 915 234 52 25 112 57 133 71 21 14 40 26 43 26 8 0
147 103 189 140 226 200 381 438 487 750 30 87 82 294 93 365 3 22 10 67 15
100 26 168 34 302 34 565 0 198 -11 486 -19 500 -1 3 -6 50 -10 105 -4 55 -8
102 -10 105 -1 3 -6 32 -9 65 -4 33 -9 78 -12 100 -2 22 -6 51 -9 65 -2 14 -7
45 -10 70 -21 154 -58 213 -155 246 -53 18 -4154 19 -4213 1z m3443 -910 c48
-21 96 -74 113 -123 25 -70 25 -429 1 -594 -68 -454 -279 -729 -669 -873 -71
-26 -192 -60 -255 -71 -19 -3 -46 -8 -60 -11 -14 -3 -47 -8 -75 -11 -27 -3
-61 -8 -75 -10 -126 -21 -489 -21 -620 0 -14 3 -47 7 -75 11 -60 7 -66 8 -180
35 -105 25 -235 70 -320 112 -57 29 -167 99 -191 122 -6 6 -29 27 -50 47 -76
70 -140 154 -185 239 -13 25 -24 47 -24 50 -1 3 -11 25 -22 50 -79 177 -116
407 -114 710 1 192 7 217 66 274 66 64 -10 61 1407 60 1152 -1 1297 -3 1328
-17z"/>
</g>
</svg>
