<svg width="1391" height="185" viewBox="0 0 1391 185" fill="none" xmlns="http://www.w3.org/2000/svg">
<path d="M228.702 93.94C228.702 87.22 227.815 82.46 226.042 79.66C224.362 76.86 221.422 75.46 217.222 75.46C215.915 75.46 214.562 75.5533 213.162 75.74C211.762 75.8333 210.409 75.9733 209.102 76.16V133H188.242V61.88C190.015 61.4133 192.069 60.9467 194.402 60.48C196.829 59.92 199.349 59.4533 201.962 59.08C204.669 58.6133 207.422 58.2867 210.222 58.1C213.022 57.82 215.775 57.68 218.482 57.68C223.802 57.68 228.095 58.38 231.362 59.78C234.722 61.0867 237.475 62.6733 239.622 64.54C242.609 62.3933 246.015 60.7133 249.842 59.5C253.762 58.2867 257.355 57.68 260.622 57.68C266.502 57.68 271.309 58.52 275.042 60.2C278.869 61.7867 281.902 64.0733 284.142 67.06C286.382 70.0467 287.922 73.5933 288.762 77.7C289.602 81.8067 290.022 86.38 290.022 91.42V133H269.162V93.94C269.162 87.22 268.275 82.46 266.502 79.66C264.822 76.86 261.882 75.46 257.682 75.46C256.562 75.46 254.975 75.74 252.922 76.3C250.962 76.86 249.329 77.56 248.022 78.4C248.675 80.5467 249.095 82.8333 249.282 85.26C249.469 87.5933 249.562 90.1133 249.562 92.82V133H228.702V93.94ZM337.105 118.44C339.158 118.44 341.118 118.393 342.985 118.3C344.851 118.207 346.345 118.067 347.465 117.88V102.06C346.625 101.873 345.365 101.687 343.685 101.5C342.005 101.313 340.465 101.22 339.065 101.22C337.105 101.22 335.238 101.36 333.465 101.64C331.785 101.827 330.291 102.247 328.985 102.9C327.678 103.553 326.651 104.44 325.905 105.56C325.158 106.68 324.785 108.08 324.785 109.76C324.785 113.027 325.858 115.313 328.005 116.62C330.245 117.833 333.278 118.44 337.105 118.44ZM335.425 57.4C341.585 57.4 346.718 58.1 350.825 59.5C354.931 60.9 358.198 62.9067 360.625 65.52C363.145 68.1333 364.918 71.3067 365.945 75.04C366.971 78.7733 367.485 82.9267 367.485 87.5V130.9C364.498 131.553 360.345 132.3 355.025 133.14C349.705 134.073 343.265 134.54 335.705 134.54C330.945 134.54 326.605 134.12 322.685 133.28C318.858 132.44 315.545 131.087 312.745 129.22C309.945 127.26 307.798 124.74 306.305 121.66C304.811 118.58 304.065 114.8 304.065 110.32C304.065 106.027 304.905 102.387 306.585 99.4C308.358 96.4133 310.691 94.0333 313.585 92.26C316.478 90.4867 319.791 89.2267 323.525 88.48C327.258 87.64 331.131 87.22 335.145 87.22C337.851 87.22 340.231 87.36 342.285 87.64C344.431 87.8267 346.158 88.1067 347.465 88.48V86.52C347.465 82.9733 346.391 80.1267 344.245 77.98C342.098 75.8333 338.365 74.76 333.045 74.76C329.498 74.76 325.998 75.04 322.545 75.6C319.091 76.0667 316.105 76.7667 313.585 77.7L310.925 60.9C312.138 60.5267 313.631 60.1533 315.405 59.78C317.271 59.3133 319.278 58.94 321.425 58.66C323.571 58.2867 325.811 58.0067 328.145 57.82C330.571 57.54 332.998 57.4 335.425 57.4ZM430.728 77.84C428.861 77.3733 426.668 76.9067 424.148 76.44C421.628 75.88 418.921 75.6 416.028 75.6C414.721 75.6 413.134 75.74 411.268 76.02C409.494 76.2067 408.141 76.44 407.208 76.72V133H386.348V63.28C390.081 61.9733 394.468 60.76 399.508 59.64C404.641 58.4267 410.334 57.82 416.588 57.82C417.708 57.82 419.061 57.9133 420.648 58.1C422.234 58.1933 423.821 58.38 425.408 58.66C426.994 58.8467 428.581 59.1267 430.168 59.5C431.754 59.78 433.108 60.1533 434.228 60.62L430.728 77.84ZM440.543 96.18C440.543 90.86 441.383 85.8667 443.063 81.2C444.836 76.44 447.356 72.3333 450.623 68.88C453.89 65.3333 457.856 62.5333 462.523 60.48C467.19 58.4267 472.51 57.4 478.483 57.4C482.403 57.4 485.996 57.7733 489.263 58.52C492.53 59.1733 495.703 60.1533 498.783 61.46L494.443 78.12C492.483 77.3733 490.336 76.72 488.003 76.16C485.67 75.6 483.056 75.32 480.163 75.32C474.003 75.32 469.383 77.2333 466.303 81.06C463.316 84.8867 461.823 89.9267 461.823 96.18C461.823 102.807 463.223 107.94 466.023 111.58C468.916 115.22 473.91 117.04 481.003 117.04C483.523 117.04 486.23 116.807 489.123 116.34C492.016 115.873 494.676 115.127 497.103 114.1L500.043 131.18C497.616 132.207 494.583 133.093 490.943 133.84C487.303 134.587 483.29 134.96 478.903 134.96C472.183 134.96 466.396 133.98 461.543 132.02C456.69 129.967 452.676 127.213 449.503 123.76C446.423 120.307 444.136 116.247 442.643 111.58C441.243 106.82 440.543 101.687 440.543 96.18ZM506.988 96.74C506.988 90.2067 507.968 84.5133 509.928 79.66C511.982 74.7133 514.642 70.6067 517.908 67.34C521.175 64.0733 524.908 61.6 529.108 59.92C533.402 58.24 537.788 57.4 542.268 57.4C552.722 57.4 560.982 60.62 567.048 67.06C573.115 73.4067 576.148 82.7867 576.148 95.2C576.148 96.4133 576.102 97.7667 576.008 99.26C575.915 100.66 575.822 101.92 575.728 103.04H528.408C528.875 107.333 530.882 110.74 534.428 113.26C537.975 115.78 542.735 117.04 548.708 117.04C552.535 117.04 556.268 116.713 559.908 116.06C563.642 115.313 566.675 114.427 569.008 113.4L571.808 130.34C570.688 130.9 569.195 131.46 567.328 132.02C565.462 132.58 563.362 133.047 561.028 133.42C558.788 133.887 556.362 134.26 553.748 134.54C551.135 134.82 548.522 134.96 545.908 134.96C539.282 134.96 533.495 133.98 528.548 132.02C523.695 130.06 519.635 127.4 516.368 124.04C513.195 120.587 510.815 116.527 509.228 111.86C507.735 107.193 506.988 102.153 506.988 96.74ZM555.988 88.76C555.895 86.9867 555.568 85.26 555.008 83.58C554.542 81.9 553.748 80.4067 552.628 79.1C551.602 77.7933 550.248 76.72 548.568 75.88C546.982 75.04 544.975 74.62 542.548 74.62C540.215 74.62 538.208 75.04 536.528 75.88C534.848 76.6267 533.448 77.6533 532.328 78.96C531.208 80.2667 530.322 81.8067 529.668 83.58C529.108 85.26 528.688 86.9867 528.408 88.76H555.988ZM621.646 134.4C615.579 134.307 610.633 133.653 606.806 132.44C603.073 131.227 600.086 129.547 597.846 127.4C595.699 125.16 594.206 122.5 593.366 119.42C592.619 116.247 592.246 112.7 592.246 108.78V27.72L613.106 24.36V104.58C613.106 106.447 613.246 108.127 613.526 109.62C613.806 111.113 614.319 112.373 615.066 113.4C615.906 114.427 617.073 115.267 618.566 115.92C620.059 116.573 622.066 116.993 624.586 117.18L621.646 134.4ZM665.943 134.4C659.876 134.307 654.93 133.653 651.103 132.44C647.37 131.227 644.383 129.547 642.143 127.4C639.996 125.16 638.503 122.5 637.663 119.42C636.916 116.247 636.543 112.7 636.543 108.78V27.72L657.403 24.36V104.58C657.403 106.447 657.543 108.127 657.823 109.62C658.103 111.113 658.616 112.373 659.363 113.4C660.203 114.427 661.37 115.267 662.863 115.92C664.356 116.573 666.363 116.993 668.883 117.18L665.943 134.4ZM749.72 96.04C749.72 101.827 748.88 107.147 747.2 112C745.52 116.76 743.093 120.867 739.92 124.32C736.746 127.68 732.92 130.293 728.44 132.16C724.053 134.027 719.106 134.96 713.6 134.96C708.186 134.96 703.24 134.027 698.76 132.16C694.373 130.293 690.593 127.68 687.42 124.32C684.246 120.867 681.773 116.76 680 112C678.226 107.147 677.34 101.827 677.34 96.04C677.34 90.2533 678.226 84.98 680 80.22C681.866 75.46 684.386 71.4 687.56 68.04C690.826 64.68 694.653 62.0667 699.04 60.2C703.52 58.3333 708.373 57.4 713.6 57.4C718.92 57.4 723.773 58.3333 728.16 60.2C732.64 62.0667 736.466 64.68 739.64 68.04C742.813 71.4 745.286 75.46 747.06 80.22C748.833 84.98 749.72 90.2533 749.72 96.04ZM728.44 96.04C728.44 89.6 727.133 84.56 724.52 80.92C722 77.1867 718.36 75.32 713.6 75.32C708.84 75.32 705.153 77.1867 702.54 80.92C699.926 84.56 698.62 89.6 698.62 96.04C698.62 102.48 699.926 107.613 702.54 111.44C705.153 115.173 708.84 117.04 713.6 117.04C718.36 117.04 722 115.173 724.52 111.44C727.133 107.613 728.44 102.48 728.44 96.04ZM817.292 95.62C817.292 102.06 818.738 107.24 821.632 111.16C824.525 115.08 828.818 117.04 834.512 117.04C836.378 117.04 838.105 116.993 839.692 116.9C841.278 116.713 842.585 116.527 843.612 116.34V78.4C842.305 77.56 840.578 76.86 838.432 76.3C836.378 75.74 834.278 75.46 832.132 75.46C822.238 75.46 817.292 82.18 817.292 95.62ZM864.472 130.62C862.605 131.18 860.458 131.74 858.032 132.3C855.605 132.767 853.038 133.187 850.332 133.56C847.718 133.933 845.012 134.213 842.212 134.4C839.505 134.68 836.892 134.82 834.372 134.82C828.305 134.82 822.892 133.933 818.132 132.16C813.372 130.387 809.358 127.867 806.092 124.6C802.825 121.24 800.305 117.227 798.532 112.56C796.852 107.8 796.012 102.48 796.012 96.6C796.012 90.6267 796.758 85.26 798.252 80.5C799.745 75.6467 801.892 71.54 804.692 68.18C807.492 64.82 810.898 62.2533 814.912 60.48C819.018 58.7067 823.685 57.82 828.912 57.82C831.805 57.82 834.372 58.1 836.612 58.66C838.945 59.22 841.278 60.0133 843.612 61.04V27.72L864.472 24.36V130.62ZM952.884 96.04C952.884 101.827 952.044 107.147 950.364 112C948.684 116.76 946.257 120.867 943.084 124.32C939.911 127.68 936.084 130.293 931.604 132.16C927.217 134.027 922.271 134.96 916.764 134.96C911.351 134.96 906.404 134.027 901.924 132.16C897.537 130.293 893.757 127.68 890.584 124.32C887.411 120.867 884.937 116.76 883.164 112C881.391 107.147 880.504 101.827 880.504 96.04C880.504 90.2533 881.391 84.98 883.164 80.22C885.031 75.46 887.551 71.4 890.724 68.04C893.991 64.68 897.817 62.0667 902.204 60.2C906.684 58.3333 911.537 57.4 916.764 57.4C922.084 57.4 926.937 58.3333 931.324 60.2C935.804 62.0667 939.631 64.68 942.804 68.04C945.977 71.4 948.451 75.46 950.224 80.22C951.997 84.98 952.884 90.2533 952.884 96.04ZM931.604 96.04C931.604 89.6 930.297 84.56 927.684 80.92C925.164 77.1867 921.524 75.32 916.764 75.32C912.004 75.32 908.317 77.1867 905.704 80.92C903.091 84.56 901.784 89.6 901.784 96.04C901.784 102.48 903.091 107.613 905.704 111.44C908.317 115.173 912.004 117.04 916.764 117.04C921.524 117.04 925.164 115.173 927.684 111.44C930.297 107.613 931.604 102.48 931.604 96.04ZM1009.5 93.94C1009.5 87.22 1008.62 82.46 1006.84 79.66C1005.16 76.86 1002.22 75.46 998.023 75.46C996.716 75.46 995.363 75.5533 993.963 75.74C992.563 75.8333 991.21 75.9733 989.903 76.16V133H969.043V61.88C970.816 61.4133 972.87 60.9467 975.203 60.48C977.63 59.92 980.15 59.4533 982.763 59.08C985.47 58.6133 988.223 58.2867 991.023 58.1C993.823 57.82 996.576 57.68 999.283 57.68C1004.6 57.68 1008.9 58.38 1012.16 59.78C1015.52 61.0867 1018.28 62.6733 1020.42 64.54C1023.41 62.3933 1026.82 60.7133 1030.64 59.5C1034.56 58.2867 1038.16 57.68 1041.42 57.68C1047.3 57.68 1052.11 58.52 1055.84 60.2C1059.67 61.7867 1062.7 64.0733 1064.94 67.06C1067.18 70.0467 1068.72 73.5933 1069.56 77.7C1070.4 81.8067 1070.82 86.38 1070.82 91.42V133H1049.96V93.94C1049.96 87.22 1049.08 82.46 1047.3 79.66C1045.62 76.86 1042.68 75.46 1038.48 75.46C1037.36 75.46 1035.78 75.74 1033.72 76.3C1031.76 76.86 1030.13 77.56 1028.82 78.4C1029.48 80.5467 1029.9 82.8333 1030.08 85.26C1030.27 87.5933 1030.36 90.1133 1030.36 92.82V133H1009.5V93.94ZM1086.27 96.74C1086.27 90.2067 1087.25 84.5133 1089.21 79.66C1091.26 74.7133 1093.92 70.6067 1097.19 67.34C1100.45 64.0733 1104.19 61.6 1108.39 59.92C1112.68 58.24 1117.07 57.4 1121.55 57.4C1132 57.4 1140.26 60.62 1146.33 67.06C1152.39 73.4067 1155.43 82.7867 1155.43 95.2C1155.43 96.4133 1155.38 97.7667 1155.29 99.26C1155.19 100.66 1155.1 101.92 1155.01 103.04H1107.69C1108.15 107.333 1110.16 110.74 1113.71 113.26C1117.25 115.78 1122.01 117.04 1127.99 117.04C1131.81 117.04 1135.55 116.713 1139.19 116.06C1142.92 115.313 1145.95 114.427 1148.29 113.4L1151.09 130.34C1149.97 130.9 1148.47 131.46 1146.61 132.02C1144.74 132.58 1142.64 133.047 1140.31 133.42C1138.07 133.887 1135.64 134.26 1133.03 134.54C1130.41 134.82 1127.8 134.96 1125.19 134.96C1118.56 134.96 1112.77 133.98 1107.83 132.02C1102.97 130.06 1098.91 127.4 1095.65 124.04C1092.47 120.587 1090.09 116.527 1088.51 111.86C1087.01 107.193 1086.27 102.153 1086.27 96.74ZM1135.27 88.76C1135.17 86.9867 1134.85 85.26 1134.29 83.58C1133.82 81.9 1133.03 80.4067 1131.91 79.1C1130.88 77.7933 1129.53 76.72 1127.85 75.88C1126.26 75.04 1124.25 74.62 1121.83 74.62C1119.49 74.62 1117.49 75.04 1115.81 75.88C1114.13 76.6267 1112.73 77.6533 1111.61 78.96C1110.49 80.2667 1109.6 81.8067 1108.95 83.58C1108.39 85.26 1107.97 86.9867 1107.69 88.76H1135.27ZM1171.52 61.88C1175.07 60.8533 1179.64 59.92 1185.24 59.08C1190.84 58.1467 1196.72 57.68 1202.88 57.68C1209.14 57.68 1214.32 58.52 1218.42 60.2C1222.62 61.7867 1225.94 64.0733 1228.36 67.06C1230.79 70.0467 1232.52 73.5933 1233.54 77.7C1234.57 81.8067 1235.08 86.38 1235.08 91.42V133H1214.22V93.94C1214.22 87.22 1213.34 82.46 1211.56 79.66C1209.79 76.86 1206.48 75.46 1201.62 75.46C1200.13 75.46 1198.54 75.5533 1196.86 75.74C1195.18 75.8333 1193.69 75.9733 1192.38 76.16V133H1171.52V61.88ZM1274.82 133H1253.96V59.36H1274.82V133ZM1276.78 38.08C1276.78 41.9067 1275.52 44.94 1273 47.18C1270.58 49.3267 1267.68 50.4 1264.32 50.4C1260.96 50.4 1258.02 49.3267 1255.5 47.18C1253.08 44.94 1251.86 41.9067 1251.86 38.08C1251.86 34.2533 1253.08 31.2667 1255.5 29.12C1258.02 26.88 1260.96 25.76 1264.32 25.76C1267.68 25.76 1270.58 26.88 1273 29.12C1275.52 31.2667 1276.78 34.2533 1276.78 38.08ZM1315.57 118.02C1319.4 118.02 1322.11 117.647 1323.69 116.9C1325.28 116.153 1326.07 114.707 1326.07 112.56C1326.07 110.88 1325.05 109.433 1322.99 108.22C1320.94 106.913 1317.81 105.467 1313.61 103.88C1310.35 102.667 1307.36 101.407 1304.65 100.1C1302.04 98.7933 1299.8 97.2533 1297.93 95.48C1296.07 93.6133 1294.62 91.42 1293.59 88.9C1292.57 86.38 1292.05 83.3467 1292.05 79.8C1292.05 72.8933 1294.62 67.4333 1299.75 63.42C1304.89 59.4067 1311.93 57.4 1320.89 57.4C1325.37 57.4 1329.67 57.82 1333.77 58.66C1337.88 59.4067 1341.15 60.2467 1343.57 61.18L1339.93 77.42C1337.51 76.58 1334.85 75.8333 1331.95 75.18C1329.15 74.5267 1325.98 74.2 1322.43 74.2C1315.9 74.2 1312.63 76.02 1312.63 79.66C1312.63 80.5 1312.77 81.2467 1313.05 81.9C1313.33 82.5533 1313.89 83.2067 1314.73 83.86C1315.57 84.42 1316.69 85.0733 1318.09 85.82C1319.59 86.4733 1321.45 87.22 1323.69 88.06C1328.27 89.74 1332.05 91.42 1335.03 93.1C1338.02 94.6867 1340.35 96.46 1342.03 98.42C1343.81 100.287 1345.02 102.387 1345.67 104.72C1346.42 107.053 1346.79 109.76 1346.79 112.84C1346.79 120.12 1344.04 125.627 1338.53 129.36C1333.12 133.093 1325.42 134.96 1315.43 134.96C1308.9 134.96 1303.44 134.4 1299.05 133.28C1294.76 132.16 1291.77 131.227 1290.09 130.48L1293.59 113.54C1297.14 114.94 1300.78 116.06 1304.51 116.9C1308.25 117.647 1311.93 118.02 1315.57 118.02Z" fill="white"/>
<path fill-rule="evenodd" clip-rule="evenodd" d="M88.8829 156C53.0944 156 42.0238 136.579 48.3599 95.5866C48.6527 93.6922 50.2977 92.3014 52.2148 92.3014H125.551C127.468 92.3014 129.113 93.6922 129.406 95.5866C135.742 136.579 124.671 156 88.8829 156ZM88.8829 139.727C70.6269 139.287 61.5273 132.188 62.5687 112.129C62.6734 110.112 64.3818 108.575 66.4016 108.575H111.387C113.397 108.575 115.099 110.095 115.229 112.101C116.491 131.532 109.09 139.287 88.8829 139.727Z" fill="white"/>
<path d="M128.969 72.5831V56.9925C128.969 44.9002 126.179 37.6321 120.135 33.9773C111.096 28.5122 99.5869 30.0791 91.7933 34.3819C90.3421 35.1831 88.5566 35.1794 87.1094 34.3711C78.9263 29.8007 65.8461 27.6682 56.7738 33.746C56.5482 33.8971 56.3395 34.0795 56.1553 34.2789C50.1049 40.8299 48.9968 45.3145 48.9968 56.9925V72.5866C48.9968 74.7613 50.7596 76.5206 52.9343 76.5206H61.3326C63.5073 76.5206 65.2701 74.7577 65.2701 72.5831V57.69C65.9676 45.806 80.3351 45.5195 80.846 57.69V72.5831C80.846 74.7577 82.6089 76.5206 84.7835 76.5206H93.182C95.3566 76.5206 97.1195 74.7606 97.1195 72.586V56.9925C97.5844 46.0385 111.766 46.0385 112.695 56.9925V72.5831C112.695 74.7577 114.458 76.5206 116.633 76.5206H125.031C127.206 76.5206 128.969 74.7577 128.969 72.5831Z" fill="white"/>
</svg>
